# Blender3D v249 OBJ File: Master.blend
# www.blender3d.org
mtllib bath.mtl
v -0.157249 1.196459 -0.823364
v -0.197744 1.072231 -0.823364
v -0.328405 1.072357 -0.823364
v -0.368662 1.196661 -0.823364
v -0.262882 1.273360 -0.823364
v -0.177944 1.189756 -0.623364
v -0.210514 1.089843 -0.623364
v -0.315601 1.089943 -0.623364
v -0.347980 1.189919 -0.623364
v -0.262903 1.251607 -0.623364
v 0.364183 1.196459 -0.823364
v 0.323688 1.072231 -0.823364
v 0.193027 1.072357 -0.823364
v 0.152769 1.196661 -0.823364
v 0.258550 1.273360 -0.823364
v 0.343488 1.189756 -0.623364
v 0.310918 1.089843 -0.623364
v 0.205830 1.089943 -0.623364
v 0.173452 1.189919 -0.623364
v 0.258529 1.251607 -0.623364
v 0.101246 1.196086 -0.817474
v 0.101246 0.988443 -0.766127
v -0.102290 0.988443 -0.766127
v -0.102290 1.196086 -0.817474
v -0.063003 1.147778 -0.309780
v -0.063003 1.040858 -0.374461
v 0.061959 1.040858 -0.374461
v 0.061959 1.147778 -0.309780
v 0.061959 0.988177 -0.206585
v 0.061959 0.990733 -0.331521
v -0.063003 0.990733 -0.331521
v -0.063003 0.988177 -0.206585
v 0.999478 -0.005682 -0.998346
v 0.999478 -0.005682 3.001654
v -1.000522 -0.005682 3.001653
v -1.000522 -0.005682 -0.998347
v -1.000522 1.294318 -0.998347
v -1.000522 1.294318 3.001653
v 0.999478 1.294318 3.001653
v 0.999478 1.294318 -0.998346
v -0.791701 1.294318 2.822929
v -0.791700 1.294318 -0.819622
v 0.790656 1.294318 -0.819622
v 0.790656 1.294318 2.822929
v -0.558229 0.218744 2.636891
v -0.558229 0.369892 -0.633584
v 0.557185 0.369892 -0.633583
v 0.557185 0.218744 2.636891
vt 1.000000 0.081168
vt 1.000000 0.483936
vt -0.047104 0.482464
vt -0.047104 0.079696
vt 0.591680 0.587584
vt 0.994048 0.587584
vt 0.994048 0.989952
vt 0.586991 0.586991
vt 0.994641 0.586991
vt 0.994641 0.994641
vt 0.014576 0.016624
vt 0.543056 0.016624
vt 0.543056 0.545104
vt 0.014576 0.545104
vt 0.114179 0.007683
vt 0.668733 0.007683
vt 0.668733 0.562237
vt 0.114179 0.562237
vt 0.553480 0.874777
vt 0.024704 0.874777
vt 0.553480 0.596263
vt 0.024704 0.596263
vt 0.017794 0.580994
vt 0.564486 0.580994
vt 0.564486 0.984254
vt 0.017794 0.984254
vt 0.591680 0.989952
vt 0.586991 0.994641
vn -0.000000 0.998934 0.046167
vn 0.000000 0.000000 1.000000
vn 0.000001 -0.000000 1.000000
vn -0.000000 0.170436 -0.985369
vn -0.969556 0.244869 -0.000000
vn -0.977543 0.210509 0.009729
vn -0.000000 0.197292 0.980345
vn -0.000001 0.197292 0.980345
vn 0.977543 0.210510 0.009729
vn 0.969556 0.244869 0.000000
vn 0.000000 1.000000 0.000000
vn 1.000000 -0.000000 -0.000000
vn 0.000000 -0.000000 -1.000000
vn -1.000000 0.000000 -0.000000
vn 0.000000 0.542968 0.839753
vn -0.000000 -0.650576 -0.759441
vn 0.000000 -0.991164 0.132645
vn 0.996363 -0.044104 0.072905
vn 0.995035 0.023891 0.096612
vn -0.000000 0.995504 0.094724
vn -0.995035 0.023891 0.096612
vn -0.996363 -0.044104 0.072905
vn 0.586294 0.805342 0.087657
vn -0.584750 0.806463 0.087657
vn -0.947690 -0.306920 0.087657
vn -0.000954 -0.996150 0.087657
vn 0.947100 -0.308735 0.087657
vn -0.584751 0.806463 0.087656
vn -0.584750 0.806464 0.087657
vn 0.947100 -0.308734 0.087657
usemtl Bathtub_bathtub.tga
s off
f 47/1/1 46/2/1 45/3/1
f 48/4/1 47/1/1 45/3/1
f 16/5/2 20/6/2 19/7/2
f 16/5/2 19/6/2 18/7/2
f 17/5/2 16/6/2 18/7/2
f 6/8/2 10/9/2 9/10/2
f 6/8/2 9/9/2 8/10/2
f 7/8/3 6/9/3 8/10/3
f 44/11/4 48/12/4 45/13/4
f 44/11/4 45/13/4 41/14/4
f 43/11/5 47/12/5 44/14/5
f 47/12/6 48/13/6 44/14/6
f 42/11/7 46/12/7 43/14/7
f 46/12/8 47/13/8 43/14/8
f 41/11/9 45/12/9 46/13/9
f 41/11/10 46/13/10 42/14/10
f 39/11/11 44/12/11 38/14/11
f 44/12/11 41/13/11 38/14/11
f 40/11/11 43/12/11 44/13/11
f 40/11/11 44/13/11 39/14/11
f 37/11/11 42/12/11 40/14/11
f 42/12/11 43/13/11 40/14/11
f 38/11/11 41/12/11 42/13/11
f 38/11/11 42/13/11 37/14/11
f 34/11/2 39/12/2 38/13/2
f 34/11/2 38/13/2 35/14/2
f 33/11/12 40/12/12 39/13/12
f 33/11/12 39/13/12 34/14/12
f 36/15/13 37/16/13 40/17/13
f 36/15/13 40/17/13 33/18/13
f 35/11/14 38/12/14 37/13/14
f 35/11/14 37/13/14 36/14/14
f 26/19/14 31/20/14 25/21/14
f 31/20/14 32/22/14 25/21/14
f 25/23/15 32/24/15 29/25/15
f 25/23/15 29/25/15 28/26/15
f 28/22/12 29/21/12 30/19/12
f 28/22/12 30/19/12 27/20/12
f 27/23/16 30/24/16 31/25/16
f 27/23/16 31/25/16 26/26/16
f 22/23/17 27/24/17 26/25/17
f 22/23/17 26/25/17 23/26/17
f 21/22/18 28/21/18 27/19/18
f 21/22/19 27/19/19 22/20/19
f 24/23/20 25/24/20 28/25/20
f 24/23/20 28/25/20 21/26/20
f 23/19/21 26/20/21 24/21/21
f 26/20/22 25/22/22 24/21/22
f 15/5/23 20/6/23 16/7/23
f 15/5/23 16/7/23 11/27/23
f 15/5/24 14/6/24 19/7/24
f 15/5/24 19/7/24 20/27/24
f 14/5/25 13/6/25 18/7/25
f 14/5/25 18/7/25 19/27/25
f 13/5/26 12/6/26 17/7/26
f 13/5/26 17/7/26 18/27/26
f 12/5/27 11/6/27 16/7/27
f 12/5/27 16/7/27 17/27/27
f 6/8/23 1/9/23 5/10/23
f 6/8/23 5/10/23 10/28/23
f 5/8/28 4/9/28 9/10/28
f 5/8/29 9/10/29 10/28/29
f 4/8/25 3/9/25 8/10/25
f 4/8/25 8/10/25 9/28/25
f 3/8/26 2/9/26 7/10/26
f 3/8/26 7/10/26 8/28/26
f 2/8/30 1/9/30 6/10/30
f 2/8/27 6/10/27 7/28/27
