# Blender3D v249 OBJ File: Master.blend
# www.blender3d.org
mtllib bed.mtl
v 3.014233 0.017200 -1.007419
v 3.014233 0.017200 5.977571
v -0.985767 0.017200 5.977571
v -0.985767 0.017200 -1.007420
v 3.014233 1.517200 -1.007418
v 3.014232 1.517200 5.977572
v -0.985768 1.517200 5.977571
v -0.985767 1.517200 -1.007419
v -0.623762 1.717200 -1.008234
v -0.623762 1.717200 5.345420
v 2.652227 1.717200 5.345421
v 2.652228 1.717200 -1.008233
vt 0.709856 0.958832
vt 0.037021 0.958832
vt 0.037021 0.305214
vt 0.709856 0.305214
vt 0.784351 0.043005
vt 0.784351 0.993843
vt 0.757125 0.129057
vt 0.757125 0.993954
vt 0.181906 0.016087
vt 0.806634 0.016087
vt 0.238444 0.114818
vt 0.750096 0.114818
vt 0.787292 0.997997
vt 0.787292 0.034753
vt 0.759712 0.121928
vt 0.759712 0.998110
vt 0.870193 0.995915
vt 0.224844 0.995915
vt 0.811788 0.996047
vt 0.283249 0.996047
vt 0.870192 0.995915
vt 0.224844 0.995916
vt 0.996193 0.008129
vt 0.691036 0.010177
vt 0.688988 1.000045
vt 0.994145 0.997998
vt 0.997498 0.840406
vt 0.687362 0.840406
vt 0.997498 0.013377
vt 0.687362 0.013377
vt 0.992113 0.991795
vt 0.700905 0.993843
vt 0.988017 0.016381
vt 0.696809 0.018429
vt 0.870192 -0.006022
vt 0.224844 -0.006022
vn 0.137028 0.812433 -0.566698
vn -0.222205 0.859890 -0.459517
vn -0.167577 0.980285 0.104526
vn 0.251839 0.964568 0.078524
vn 0.362835 0.680410 0.636677
vn 0.649739 0.382427 -0.656911
vn -0.551378 0.679647 0.483749
vn -0.649953 0.381664 -0.657155
vn 0.408246 -0.816492 -0.408246
vn -0.408246 -0.408246 -0.816492
vn -0.577349 -0.577349 0.577349
vn 0.816492 -0.408246 0.408246
usemtl Bed_bed1.tga
s 1
f 12/1/1 9/2/2 10/3/3
f 12/1/1 10/3/3 11/4/4
f 6/5/5 5/6/6 11/7/4
f 5/6/6 12/8/1 11/7/4
f 7/9/7 6/10/5 10/11/3
f 6/10/5 11/12/4 10/11/3
f 8/13/8 7/14/7 10/15/3
f 8/13/8 10/15/3 9/16/2
f 5/17/6 8/18/8 12/19/1
f 8/18/8 9/20/2 12/19/1
f 5/17/6 1/21/9 4/22/10
f 5/17/6 4/22/10 8/18/8
f 3/23/11 7/24/7 8/25/8
f 3/23/11 8/25/8 4/26/10
f 2/27/12 6/28/5 3/29/11
f 6/28/5 7/30/7 3/29/11
f 1/31/9 5/32/6 2/33/12
f 5/32/6 6/34/5 2/33/12
f 1/21/9 2/35/12 3/36/11
f 1/21/9 3/36/11 4/22/10
