# Blender3D v249 OBJ File: Master.blend
# www.blender3d.org
mtllib chair.mtl
v -0.769493 1.751782 -0.899666
v 0.766010 1.751782 -0.899667
v 0.898171 1.751782 0.900333
v -0.901829 1.751782 0.900333
v -0.901829 1.551782 0.900333
v 0.898171 1.551782 0.900333
v 0.766010 1.551782 -0.899667
v -0.769493 1.551782 -0.899666
v -0.891829 -0.001267 0.810334
v -0.711829 -0.001267 0.810334
v -0.711829 -0.001267 0.990334
v -0.891829 -0.001267 0.990334
v -0.900868 1.552654 0.896003
v -0.648868 1.552654 0.896003
v -0.648868 1.552654 0.644003
v -0.900868 1.552654 0.644003
v -0.768673 1.552654 -0.642468
v -0.553703 1.552654 -0.642468
v -0.553703 1.552654 -0.894468
v -0.768673 1.552654 -0.894468
v -0.891830 -0.001267 -0.988798
v -0.711830 -0.001267 -0.988798
v -0.711830 -0.001267 -0.808798
v -0.891830 -0.001267 -0.808798
v 0.891877 -0.001267 -0.808799
v 0.711877 -0.001267 -0.808799
v 0.711877 -0.001267 -0.988799
v 0.891877 -0.001267 -0.988799
v 0.768353 1.552654 -0.894468
v 0.553382 1.552654 -0.894468
v 0.553382 1.552654 -0.642468
v 0.768353 1.552654 -0.642468
v 0.900917 1.552654 0.644002
v 0.648917 1.552654 0.644002
v 0.648918 1.552654 0.896002
v 0.900918 1.552654 0.896002
v 0.891878 -0.001267 0.990333
v 0.711878 -0.001267 0.990333
v 0.711878 -0.001267 0.810333
v 0.891878 -0.001267 0.810333
v -0.891830 3.307221 -0.808798
v -0.711830 3.307221 -0.808799
v -0.711830 3.307221 -0.988798
v -0.891830 3.307221 -0.988798
v -0.768673 1.753300 -0.894468
v -0.599327 1.753300 -0.894468
v -0.599327 1.753300 -0.642468
v -0.768673 1.753300 -0.642468
v 0.596218 1.753300 -0.642468
v 0.765564 1.753300 -0.642468
v 0.765564 1.753300 -0.894468
v 0.596218 1.753300 -0.894468
v 0.708170 3.307221 -0.988799
v 0.888170 3.307221 -0.988799
v 0.888170 3.307221 -0.808799
v 0.708170 3.307221 -0.808799
v 0.308170 3.307221 -0.808799
v 0.488170 3.307221 -0.808799
v 0.488170 3.307221 -0.988799
v 0.308170 3.307221 -0.988799
v 0.254995 1.753300 -0.894468
v 0.424341 1.753300 -0.894468
v 0.424341 1.753300 -0.642468
v 0.254995 1.753300 -0.642468
v -0.086227 1.753300 -0.642468
v 0.083119 1.753300 -0.642468
v 0.083118 1.753300 -0.894468
v -0.086228 1.753300 -0.894468
v -0.091830 3.307221 -0.988799
v 0.088170 3.307221 -0.988799
v 0.088170 3.307221 -0.808799
v -0.091830 3.307221 -0.808799
v -0.491830 3.307221 -0.808799
v -0.311830 3.307221 -0.808799
v -0.311830 3.307221 -0.988799
v -0.491830 3.307221 -0.988798
v -0.427450 1.753300 -0.894468
v -0.258104 1.753300 -0.894468
v -0.258104 1.753300 -0.642468
v -0.427450 1.753300 -0.642468
v -0.901830 3.300527 -1.017552
v 0.898170 3.300527 -1.017553
v 0.898170 3.300527 -0.797051
v -0.901830 3.300527 -0.797051
v -0.901830 3.500527 -0.797051
v 0.898170 3.500527 -0.797051
v 0.898170 3.500527 -1.017553
v -0.901830 3.500527 -1.017552
vt -0.200921 1.608458
vt -0.200921 1.755446
vt 1.121976 1.755446
vt 1.121976 1.608458
vt -0.328505 1.339323
vt -0.328506 1.145793
vt 1.251323 1.145794
vt 1.251323 1.339324
vt 1.570406 2.629175
vt -0.650722 2.629175
vt -0.650722 2.382383
vt 1.570406 2.382383
vt 1.062310 1.739902
vt 1.222409 1.739902
vt 1.222409 1.594689
vt 1.062310 1.594689
vt 1.245242 1.779722
vt 1.080128 1.779722
vt 1.080128 1.629961
vt 1.245242 1.629961
vt 0.272180 0.471334
vt 0.147721 0.471334
vt 0.232695 1.613377
vt 0.100405 1.613377
vt 1.133042 0.471301
vt 0.950073 0.471301
vt 1.070840 1.599550
vt 1.201532 1.599550
vt -0.065357 0.473165
vt 0.143610 0.473165
vt 0.077315 2.390642
vt -0.144798 2.390642
vt 0.964375 0.471385
vt 1.153074 0.471385
vt 1.088924 1.634974
vt 1.223710 1.634974
vt 1.088925 1.634974
vt 0.355698 0.473165
vt 0.564665 0.473165
vt 0.570899 2.390642
vt 0.348786 2.390642
vt 0.522959 0.471334
vt 0.398500 0.471334
vt 0.526672 1.613377
vt 0.394383 1.613377
vt 0.773739 0.471334
vt 0.649279 0.471334
vt 0.688359 1.613377
vt 0.820650 1.613377
vt 0.776754 0.473165
vt 0.985720 0.473165
vt 0.842370 2.390642
vt 1.064483 2.390642
vt 1.197810 0.473165
vt 1.406776 0.473165
vt 1.335954 2.390642
vt 1.558067 2.390642
vt 1.024518 0.471334
vt 0.900059 0.471334
vt 0.982337 1.613377
vt 1.114627 1.613377
vt 0.021401 0.471334
vt -0.103059 0.471334
vt -0.061282 1.613377
vt -0.193572 1.613377
vt 1.133041 0.471301
vt -0.486412 0.473165
vt -0.277446 0.473165
vt -0.416270 2.390642
vt -0.638382 2.390642
vt 0.016012 0.325620
vt -0.104755 -0.802628
vt -0.166957 0.325620
vt -0.235447 -0.802628
vt 1.123995 0.323871
vt 1.117352 -0.818172
vt 0.985062 -0.818172
vt 0.938789 0.323871
vt -0.187644 0.321140
vt -0.258279 -0.842448
vt -0.123494 -0.842448
vt 0.001056 0.321140
vt 1.262839 0.225577
vt 1.340529 -1.691901
vt 1.573796 0.225577
vt 1.562643 -1.691901
vt 0.868576 0.323871
vt 1.026567 0.323871
vt 0.985061 -0.818172
vt 1.117351 -0.818172
vt 1.153074 0.321140
vt 0.964375 0.321140
vt 1.088925 -0.842448
vt 1.223710 -0.842448
vt 1.410217 0.225577
vt 1.144952 0.225577
vt 1.562641 -1.691901
vt 0.950073 0.325620
vt 1.133042 0.325620
vt 1.070840 -0.802628
vt 1.201532 -0.802628
vt 1.088924 -0.842448
vt -0.486412 0.225577
vt -0.638382 -1.691901
vt -0.416270 -1.691901
vt -0.221147 0.225577
vt 1.133041 0.325620
vt 0.054932 0.323871
vt -0.061282 -0.818172
vt -0.103059 0.323871
vt -0.193572 -0.818172
vt -0.338577 0.225577
vt -0.649536 0.225577
vt -0.416268 -1.691901
vt 0.016011 0.325620
vt -0.104756 -0.802628
vt -0.200215 0.323871
vt -0.015009 0.323871
vt -0.061281 -0.818172
vt -0.193571 -0.818172
vt 0.001055 0.321140
vt -0.123495 -0.842448
vt -0.258280 -0.842448
vt 1.251324 -0.343971
vt -0.328505 -0.343972
vt -0.212356 1.235857
vt 1.135328 1.235857
vt 1.156967 0.470248
vt -0.190887 0.470248
vt -0.190887 0.320487
vt 1.156967 0.320487
vt -0.103661 0.470218
vt 1.024846 0.470218
vt 1.024846 0.323230
vt -0.103661 0.323230
vt -0.170101 0.470199
vt 1.136816 0.470199
vt 1.136816 0.324986
vt -0.170101 0.324986
vt 1.570408 0.471292
vt -0.650721 0.471292
vt -0.650721 0.224500
vt 1.570408 0.224500
vn -0.000000 0.000000 -1.000000
vn 0.000000 1.000000 0.000000
vn 0.000000 0.000000 1.000000
vn -1.000000 0.000000 -0.000001
vn 1.000000 0.000000 -0.000000
vn 0.000000 -1.000000 0.000000
vn -0.000000 -0.060593 -0.998163
vn -0.999143 -0.041395 0.000000
vn -0.999143 -0.041395 0.000001
vn 0.000001 0.106431 0.994320
vn 0.000000 0.106431 0.994320
vn 0.999403 0.034553 -0.000001
vn 0.999995 -0.003251 -0.000001
vn -0.999994 -0.003605 0.000000
vn -0.999994 -0.003605 0.000001
vn -0.000001 -0.060593 -0.998162
vn -0.000000 -0.060593 -0.998162
vn -0.000001 -0.060594 -0.998163
vn -0.999415 0.034200 0.000000
vn -0.999415 0.034200 0.000001
vn 0.999157 -0.041042 -0.000001
vn 0.996902 -0.078657 -0.000000
vn 0.996902 -0.078657 -0.000001
vn -0.997415 0.071859 0.000000
vn -0.997415 0.071859 0.000001
vn -0.000000 -0.060594 -0.998162
vn -0.000000 -0.060594 -0.998163
vn -0.996874 -0.079008 0.000000
vn -0.996874 -0.079008 0.000001
vn 0.997389 0.072210 -0.000001
vn -0.999180 -0.040484 0.000001
vn -0.000001 -0.106431 -0.994320
vn -0.000000 -0.106431 -0.994320
vn 0.999983 -0.005817 -0.000001
vn 0.999983 -0.005817 -0.000000
vn 0.000000 0.060594 0.998163
vn 0.000001 0.060593 0.998163
vn -0.000001 0.060593 -0.998163
vn 0.996855 0.079242 -0.000000
vn 0.996855 0.079242 -0.000001
vn 0.000000 -0.106431 0.994320
vn 0.000001 -0.106431 0.994320
vn -0.994839 -0.101470 0.000000
vn -0.994838 -0.101470 0.000000
vn 0.994862 -0.101237 -0.000001
vn -0.996874 0.079008 0.000001
vn -0.996874 0.079008 0.000000
vn -0.000000 0.060593 -0.998163
vn 0.000000 0.060593 0.998163
vn -0.999983 -0.005817 0.000000
vn 0.999180 -0.040484 -0.000000
vn 0.997315 0.000000 -0.073226
vn -0.997308 0.000000 -0.073322
usemtl Chair_hardwood.tga
s off
f 81/1/1 88/2/1 87/3/1
f 81/1/1 87/3/1 82/4/1
f 88/5/2 85/6/2 86/7/2
f 88/5/2 86/7/2 87/8/2
f 86/9/3 85/10/3 84/11/3
f 86/9/3 84/11/3 83/12/3
f 85/13/4 88/14/4 81/15/4
f 85/13/4 81/15/4 84/16/4
f 87/17/5 86/18/5 83/19/5
f 87/17/5 83/19/5 82/20/5
f 83/7/6 84/6/6 81/5/6
f 83/7/6 81/5/6 82/8/6
f 78/21/7 77/22/7 75/23/7
f 77/22/7 76/24/7 75/23/7
f 77/25/8 80/26/8 73/27/8
f 77/25/9 73/27/9 76/28/9
f 80/29/10 79/30/10 74/31/10
f 80/29/11 74/31/11 73/32/11
f 79/33/12 78/34/12 74/35/12
f 78/34/12 75/36/12 74/35/12
f 66/33/13 67/34/13 71/37/13
f 67/34/13 70/36/13 71/37/13
f 65/38/11 66/39/11 71/40/11
f 65/38/11 71/40/11 72/41/11
f 68/25/14 65/26/14 72/27/14
f 68/25/15 72/27/15 69/28/15
f 67/42/16 68/43/16 70/44/16
f 68/43/7 69/45/7 70/44/7
f 62/46/17 61/47/17 60/48/17
f 62/46/18 60/48/18 59/49/18
f 61/25/19 64/26/19 57/27/19
f 61/25/20 57/27/20 60/28/20
f 64/50/11 63/51/11 57/52/11
f 63/51/10 58/53/10 57/52/10
f 63/33/21 62/34/21 58/37/21
f 62/34/21 59/36/21 58/37/21
f 50/33/22 51/34/22 55/37/22
f 51/34/23 54/36/23 55/37/23
f 49/54/10 50/55/10 56/56/10
f 50/55/10 55/57/10 56/56/10
f 52/25/24 49/26/24 56/27/24
f 52/25/25 56/27/25 53/28/25
f 51/58/26 52/59/26 53/60/26
f 51/58/18 53/60/18 54/61/18
f 46/62/26 45/63/26 43/64/26
f 45/63/27 44/65/27 43/64/27
f 45/66/28 48/26/28 41/27/28
f 45/66/29 41/27/29 44/28/29
f 48/67/11 47/68/11 42/69/11
f 48/67/11 42/69/11 41/70/11
f 47/33/30 46/34/30 42/35/30
f 46/34/30 43/36/30 42/35/30
f 34/71/31 39/72/31 35/73/31
f 39/72/31 38/74/31 35/73/31
f 33/75/32 40/76/32 39/77/32
f 33/75/33 39/77/33 34/78/33
f 36/79/34 37/80/34 40/81/34
f 36/79/35 40/81/35 33/82/35
f 35/83/36 38/84/36 36/85/36
f 38/84/37 37/86/37 36/85/37
f 30/87/38 29/88/38 27/89/38
f 29/88/38 28/90/38 27/89/38
f 29/91/39 32/92/39 25/93/39
f 29/91/40 25/93/40 28/94/40
f 32/95/41 31/96/41 26/84/41
f 32/95/42 26/84/42 25/97/42
f 31/98/43 30/99/43 26/100/43
f 30/99/44 27/101/44 26/100/44
f 18/92/45 23/102/45 19/91/45
f 23/102/45 22/94/45 19/91/45
f 17/103/41 24/104/41 23/105/41
f 17/103/41 23/105/41 18/106/41
f 20/107/46 21/101/46 24/100/46
f 20/107/47 24/100/47 17/98/47
f 19/108/38 22/109/38 20/110/38
f 22/109/48 21/111/48 20/110/48
f 14/112/49 13/113/49 11/114/49
f 13/113/49 12/104/49 11/114/49
f 13/73/50 16/115/50 9/116/50
f 13/73/50 9/116/50 12/74/50
f 16/117/33 15/118/33 10/119/33
f 16/117/33 10/119/33 9/120/33
f 15/121/51 14/79/51 10/122/51
f 14/79/51 11/123/51 10/122/51
f 6/124/6 5/125/6 8/126/6
f 6/124/6 8/126/6 7/127/6
f 2/128/52 3/129/52 6/130/52
f 2/128/52 6/130/52 7/131/52
f 1/132/1 2/133/1 7/134/1
f 1/132/1 7/134/1 8/135/1
f 4/136/53 1/137/53 8/138/53
f 4/136/53 8/138/53 5/139/53
f 3/140/3 4/141/3 5/142/3
f 3/140/3 5/142/3 6/143/3
f 1/126/2 4/125/2 3/124/2
f 1/126/2 3/124/2 2/127/2
