# Blender3D v249 OBJ File: Master.blend
# www.blender3d.org
mtllib extWallBase_L.mtl
v -0.499745 0.500000 1.099929
v 0.500254 -0.000000 1.099929
v -0.499746 0.500000 -0.390070
v 0.500254 2.000000 1.099929
v -0.399746 1.000000 1.099930
v -0.599745 0.500000 1.099930
v -0.599745 -0.000000 1.099930
v -0.499746 1.000000 -0.390070
v -0.499746 1.000000 1.099930
v -0.399746 1.500000 1.099930
v -0.499746 1.500000 1.099930
v -0.499746 1.500000 -0.390070
v -0.399746 2.000000 1.099930
v -0.399746 0.500000 -0.500071
v 0.500254 -0.000000 0.499929
v 1.100255 0.000000 0.499929
v 1.100254 0.500000 -0.500071
v 1.100253 1.000000 -0.400071
v 1.100254 2.000000 0.499929
v 0.500254 2.000000 0.499929
v -0.399746 1.000000 -0.400071
v -0.599746 0.500000 -0.600071
v 1.100254 0.500000 -0.600071
v -0.599746 -0.000000 -0.600070
v 1.100254 0.000000 -0.600071
v 1.100253 1.000000 -0.500071
v -0.399746 1.000000 -0.500071
v -0.399746 1.500000 -0.400071
v 1.100253 1.500000 -0.400071
v -0.399746 1.500000 -0.500071
v 1.100253 1.500000 -0.500072
v -0.399746 2.000000 -0.400071
v 1.100253 2.000000 -0.400072
v -0.399746 0.500000 -0.400071
vt 0.991316 0.020274
vt 0.992025 0.035748
vt 0.873777 0.035747
vt 0.991316 0.019774
vt 0.992025 0.035248
vt 0.873777 0.035247
vt 0.900294 0.371096
vt 0.978237 0.369828
vt 0.978237 0.581379
vt 0.996852 0.027127
vt 0.997657 0.335310
vt 0.872313 0.336621
vt 0.871508 0.028438
vt 0.999398 0.047189
vt 1.000000 0.016669
vt 0.871473 0.015326
vt 0.870871 0.045846
vt 1.000138 0.048072
vt 1.000740 0.017552
vt 0.872213 0.016210
vt 0.871611 0.046729
vt 0.872787 0.372325
vt 0.872786 0.671583
vt 0.997246 0.372326
vt 0.997246 0.671584
vt 0.906411 0.350727
vt 0.984467 0.384390
vt 0.984467 0.633210
vt 0.906411 0.635093
vt 0.602944 0.002560
vt 0.602944 1.001830
vt 0.854783 1.001830
vt 0.854783 0.002560
vt 0.872230 0.020274
vt 0.875545 0.032109
vt 0.996058 0.333028
vt 0.874678 0.333028
vt 0.881449 0.022267
vt 1.001705 0.040173
vt 0.877868 0.046318
vt 0.999555 0.044580
vt 0.874266 0.045201
vt 0.994570 0.020399
vt 0.996058 0.032109
vt 0.872230 0.019774
vt 0.999580 0.044700
vt 0.874291 0.045321
vt 0.994595 0.020519
vt 0.881478 0.022075
vt 1.001733 0.039981
vt 0.877897 0.046126
vt 0.998568 0.044658
vt 0.873279 0.045280
vt 0.993583 0.020477
vt 0.877541 0.045876
vt 0.881122 0.021825
vt 1.001377 0.039731
vt 0.967171 0.018581
vt 0.897084 0.018860
vt 0.995755 0.053764
vt 0.886837 0.646614
vt 0.876811 0.470412
vt 0.967987 0.470412
vt 0.967987 0.561588
vt 0.870447 0.352048
vt 0.873647 0.670352
vt 0.999952 0.667152
vt 0.996752 0.348848
vt 0.872161 0.029792
vt 0.872161 0.331099
vt 0.997399 0.029792
vt 0.997399 0.331099
vt 0.000000 0.000000
vt 0.193680 0.000000
vt 0.000000 1.000000
vt 0.193680 1.000000
vn 0.000000 -1.000000 -0.000000
vn 0.000000 1.000000 0.000000
vn -0.000000 0.196116 -0.980581
vn -0.000001 0.196116 -0.980581
vn -0.000000 -0.000000 -1.000000
vn -0.000000 1.000000 -0.000001
vn 0.000000 0.000000 1.000000
vn -0.000002 -1.000000 0.000000
vn -0.980581 0.196117 0.000000
vn -1.000000 0.000000 0.000000
vn -0.099513 -0.000000 -0.995036
vn -0.980581 0.196116 0.000000
vn -0.000003 -1.000000 0.000000
vn -0.099510 0.000000 -0.995037
vn -1.000000 0.000000 -0.000001
vn 0.000003 1.000000 -0.000000
vn -0.000003 1.000000 -0.000000
vn 0.000001 1.000000 -0.000002
vn 1.000000 0.000000 -0.000000
usemtl House_Side_house_blue.tga
s off
f 10/1/1 11/2/1 12/3/1
f 5/4/1 9/5/1 8/6/1
f 6/7/2 1/8/2 3/9/2
f 30/10/3 32/11/3 33/12/3
f 30/10/4 33/12/4 31/13/4
f 28/14/1 30/15/1 31/16/1
f 28/14/1 31/16/1 29/17/1
f 27/10/4 28/11/4 29/12/4
f 27/10/4 29/12/4 26/13/4
f 21/18/1 27/19/1 26/20/1
f 21/18/1 26/20/1 18/21/1
f 23/22/5 25/23/5 22/24/5
f 25/23/5 24/25/5 22/24/5
f 22/26/2 14/27/2 17/28/2
f 22/26/6 17/28/6 23/29/6
f 14/10/3 21/11/3 18/12/3
f 14/10/3 18/12/3 17/13/3
f 16/30/7 19/31/7 20/32/7
f 16/30/7 20/32/7 15/33/7
f 10/1/8 12/3/8 28/34/8
f 12/35/9 13/36/9 32/37/9
f 28/38/10 32/39/10 30/40/10
f 12/41/11 32/42/11 28/43/11
f 11/44/12 13/36/12 12/35/12
f 5/4/13 8/6/13 21/45/13
f 8/46/11 28/47/11 21/48/11
f 21/49/10 28/50/10 27/51/10
f 3/52/14 21/53/14 34/54/14
f 14/55/15 34/56/15 21/57/15
f 3/58/16 34/59/16 14/60/16
f 3/9/17 22/61/17 6/7/17
f 3/62/18 14/63/18 22/64/18
f 6/65/10 22/66/10 24/67/10
f 6/65/10 24/67/10 7/68/10
f 1/69/12 5/70/12 3/71/12
f 5/70/12 21/72/12 3/71/12
f 8/69/12 9/71/12 10/72/12
f 8/69/9 10/72/9 28/70/9
f 2/73/19 15/74/19 4/75/19
f 15/74/19 20/76/19 4/75/19
