# Blender3D v249 OBJ File: Master.blend
# www.blender3d.org
mtllib extWall_RL.mtl
v -1.100431 0.500000 0.499928
v -1.099982 -0.000000 -0.500072
v -1.099982 2.000000 -0.500072
v -1.100432 1.000000 0.399928
v -1.100432 0.500000 0.399928
v -1.100432 -0.000000 0.499928
v -1.100432 1.000000 0.499928
v -1.100432 1.500000 0.399928
v -1.100432 1.500000 0.499928
v -1.100432 2.000000 0.399928
v 0.500018 -0.000000 -0.500072
v 0.500018 0.000000 1.099928
v -0.499852 0.500000 1.099928
v -0.399852 1.000000 1.099927
v 0.500019 2.000000 1.099928
v 0.500018 2.000000 -0.500072
v -0.399852 0.500000 0.399928
v -0.399852 0.500000 1.099927
v -0.499852 -0.000000 0.499928
v -0.499852 0.000000 1.099928
v -0.499852 1.000000 1.099927
v -0.399852 1.500000 1.099927
v -0.499853 1.500000 1.099927
v -0.399852 2.000000 1.099927
v -0.399852 1.000000 0.499927
v -0.399853 1.500000 0.499927
v -0.399853 2.000000 0.499927
v -0.500431 0.500000 0.499928
v -0.500432 1.000000 0.399928
v -0.500432 1.000000 0.499928
v -0.500432 1.500000 0.399928
v -0.500432 1.500000 0.499928
v -0.500432 2.000000 0.399928
v -0.399852 1.000000 0.399927
v -0.399853 1.500000 0.399927
v -0.399853 2.000000 0.399927
vt 0.993496 0.317834
vt 0.924036 0.311584
vt 0.993496 0.018576
vt 0.924037 0.012326
vt 0.601694 0.343810
vt 0.854783 1.001830
vt 0.602944 1.001830
vt 0.853533 0.343810
vt 0.936775 0.321853
vt 0.989873 0.016098
vt 0.987234 0.319903
vt 0.939415 0.018048
vt -0.001250 0.341250
vt 0.000000 1.000000
vt 0.192430 0.341250
vt 0.193680 1.000000
vt 0.941572 0.020671
vt 0.957651 0.331284
vt 0.940932 0.331284
vt 0.948552 0.329160
vt 0.934295 0.329160
vt 0.948552 0.021941
vt 0.941572 0.020298
vt 0.957651 0.330911
vt 0.940932 0.330911
vt 0.948552 0.329221
vt 0.934295 0.329221
vt 0.948552 0.022001
vt 0.948552 0.329209
vt 0.934295 0.329209
vt 0.948552 0.021990
vt 0.941572 0.020324
vt 0.957651 0.330938
vt 0.940932 0.330938
vt 0.889219 0.040002
vt 0.994915 0.043564
vt 0.891493 0.011916
vt 0.995806 0.014952
vt 0.995796 0.014921
vt 0.994947 0.043533
vt 0.891482 0.011926
vt 0.889080 0.040133
vt 0.884861 0.027084
vt 0.884861 0.045079
vt 0.902752 0.045079
vt 0.902752 0.027084
vt 0.882135 0.330044
vt 0.882775 0.019431
vt 0.940932 0.330684
vt 0.941572 0.020071
vt 0.897645 0.023085
vt 0.897645 0.040976
vt 0.987100 0.040976
vt 0.987100 0.023085
vt 0.882135 0.329671
vt 0.882775 0.019058
vt 0.941572 0.019698
vt 0.940932 0.330311
vt 0.901395 0.025727
vt 0.901395 0.043618
vt 0.990850 0.043618
vt 0.990850 0.025727
vt 0.882135 0.330298
vt 0.882775 0.019684
vt 0.996396 0.329160
vt 0.996396 0.021941
vt 0.992207 0.027188
vt 0.992207 0.045079
vt 0.996396 0.329221
vt 0.996396 0.022001
vt 0.996396 0.329209
vt 0.996396 0.021990
vn -0.980581 0.196116 -0.000001
vn 1.000000 -0.000000 -0.000000
vn -0.000001 0.196116 0.980581
vn -0.000000 -0.000000 -1.000000
vn 0.000007 0.196116 0.980581
vn -0.980362 0.197208 0.000000
vn 0.000005 0.196116 0.980581
vn 0.000001 -1.000000 0.000001
vn -0.000000 -1.000000 -0.000000
vn 0.000003 -1.000000 -0.000000
vn 0.000004 -1.000000 -0.000000
vn 0.000000 0.196116 0.980581
vn -0.980581 0.196116 0.000000
vn -0.980361 0.197208 0.000946
vn 0.000004 -1.000000 0.000001
vn -0.980361 0.197207 0.000946
usemtl House_Side_house_blue.tga
s off
f 18/1/1 17/2/1 20/3/1
f 20/3/1 17/2/1 19/4/1
f 12/5/2 16/6/2 15/7/2
f 12/5/2 11/8/2 16/6/2
f 5/9/3 19/10/3 17/11/3
f 5/9/3 6/12/3 19/10/3
f 2/13/4 3/14/4 11/15/4
f 11/15/4 3/14/4 16/16/4
f 32/17/5 36/18/5 33/19/5
f 27/20/6 36/21/6 32/22/6
f 30/23/7 35/24/7 31/25/7
f 26/26/6 35/27/6 30/28/6
f 25/29/6 34/30/6 28/31/6
f 28/32/7 34/33/7 29/34/7
f 17/35/8 18/36/8 28/37/8
f 18/36/8 13/38/8 28/37/8
f 1/39/9 5/40/9 28/41/9
f 5/40/9 17/42/9 28/41/9
f 29/43/10 34/44/10 25/45/10
f 29/43/10 25/45/10 30/46/10
f 26/45/11 32/46/11 31/43/11
f 26/45/11 31/43/11 35/44/11
f 10/47/12 9/48/12 33/49/12
f 9/48/12 32/50/12 33/49/12
f 9/51/9 8/52/9 31/53/9
f 9/51/9 31/53/9 32/54/9
f 8/55/12 7/56/12 30/57/12
f 8/55/12 30/57/12 31/58/12
f 7/59/9 4/60/9 29/61/9
f 7/59/9 29/61/9 30/62/9
f 4/63/12 1/64/12 29/34/12
f 1/64/12 28/32/12 29/34/12
f 24/65/13 27/20/13 23/66/13
f 27/20/14 32/22/14 23/66/14
f 23/67/15 32/46/15 26/45/15
f 23/67/9 26/45/9 22/68/9
f 22/69/13 26/26/13 21/70/13
f 26/26/14 30/28/14 21/70/14
f 21/67/10 30/46/10 25/45/10
f 21/67/9 25/45/9 14/68/9
f 14/71/13 25/29/13 13/72/13
f 25/29/16 28/31/16 13/72/16
