# Blender3D v249 OBJ File: Master.blend
# www.blender3d.org
mtllib extWallBase_E.mtl
v 0.720000 0.500000 -0.500000
v 0.720000 0.000000 0.500000
v -1.080001 0.000000 0.500000
v -1.080000 0.500000 -0.500000
v -1.080000 1.000000 -0.400001
v -1.080001 2.000000 0.499999
v 0.720000 2.000000 0.500000
v 0.720000 1.000000 -0.400000
v 0.720000 0.500000 -0.600000
v -1.080000 0.500000 -0.600000
v 0.720000 -0.000000 -0.600000
v -1.080000 0.000000 -0.600000
v -1.080000 1.000000 -0.500001
v 0.720000 1.000000 -0.500000
v 0.720000 1.500000 -0.400000
v -1.080000 1.500000 -0.400001
v 0.720000 1.500000 -0.500000
v -1.080000 1.500000 -0.500001
v 0.720000 2.000000 -0.400000
v -1.080000 2.000000 -0.400001
v 0.720000 0.000000 0.600000
v 0.720000 2.000000 0.600000
v 1.020000 -0.000000 0.600000
v 1.020000 2.000000 0.600000
v 1.020000 -0.000000 -0.700000
v 1.020000 2.000000 -0.700001
v 0.719999 -0.000000 -0.700000
v 0.720000 2.000000 -0.700001
v 0.720000 2.000000 -0.400001
v 0.719999 -0.000000 -0.400000
vt 0.996852 0.027127
vt 0.872313 0.336621
vt 0.997657 0.335310
vt 0.871508 0.028438
vt 0.999398 0.047189
vt 0.871473 0.015326
vt 1.000000 0.016669
vt 0.870871 0.045846
vt 1.000138 0.048072
vt 0.872213 0.016210
vt 1.000740 0.017552
vt 0.871611 0.046729
vt 0.872787 0.372325
vt 0.997246 0.372326
vt 0.872786 0.671583
vt 0.997246 0.671584
vt 0.874851 0.346742
vt 0.999311 0.346742
vt 0.000000 0.000000
vt 0.868127 0.999270
vt 0.000000 0.999270
vt 0.868126 0.000000
vt 0.744891 0.993043
vt 0.841246 0.350677
vt 0.744891 0.350677
vt 0.841246 0.993043
vt 0.648536 0.993043
vt 0.648536 0.350677
vt 0.230997 0.993044
vt 0.230997 0.350677
vt 0.134642 0.993044
vt 0.134642 0.350677
vt 0.035875 0.993993
vt 0.035875 0.351627
vn 0.000000 0.196116 -0.980581
vn -0.000000 -1.000000 0.000001
vn -0.000000 -1.000000 0.000000
vn 0.000000 -0.000000 -1.000000
vn 0.000000 1.000000 -0.000000
vn -0.000000 0.000000 1.000000
vn -1.000000 0.000000 -0.000000
vn 1.000000 -0.000000 0.000000
usemtl House_Side_house_blue.tga
s off
f 17/1/1 20/2/1 19/3/1
f 17/1/1 18/4/1 20/2/1
f 15/5/2 18/6/2 17/7/2
f 15/5/3 16/8/3 18/6/3
f 14/1/1 16/2/1 15/3/1
f 14/1/1 13/4/1 16/2/1
f 8/9/3 13/10/3 14/11/3
f 8/9/3 5/12/3 13/10/3
f 10/13/4 9/14/4 12/15/4
f 12/15/4 9/14/4 11/16/4
f 4/17/5 1/18/5 9/14/5
f 9/14/5 10/13/5 4/17/5
f 1/1/1 5/2/1 8/3/1
f 1/1/1 4/4/1 5/2/1
f 3/19/6 7/20/6 6/21/6
f 3/19/6 2/22/6 7/20/6
f 27/23/7 29/24/7 28/25/7
f 27/23/7 30/26/7 29/24/7
f 25/27/4 28/25/4 26/28/4
f 25/27/4 27/23/4 28/25/4
f 23/29/8 25/27/8 24/30/8
f 24/30/8 25/27/8 26/28/8
f 21/31/6 23/29/6 22/32/6
f 22/32/6 23/29/6 24/30/6
f 2/33/7 22/32/7 7/34/7
f 2/33/7 21/31/7 22/32/7
