# Blender3D v249 OBJ File: Master.blend
# www.blender3d.org
mtllib extWall_L.mtl
v -0.501625 0.500000 1.098857
v 0.498376 -0.000000 1.098857
v -0.501625 0.500000 -0.391143
v 0.498375 2.000000 1.098857
v -0.401625 1.000000 1.098857
v -0.401625 0.500000 1.098857
v -0.501625 -0.000000 1.098857
v -0.501625 1.000000 -0.391143
v -0.501625 1.000000 1.098857
v -0.401625 1.500000 1.098857
v -0.501625 1.500000 1.098857
v -0.501625 1.500000 -0.391142
v -0.401625 2.000000 1.098857
v -0.401625 0.500000 -0.501143
v 0.498376 -0.000000 0.498857
v 1.098376 0.000000 0.498857
v 1.098375 0.500000 -0.501143
v 1.098375 1.000000 -0.401144
v 1.098375 2.000000 0.498856
v 0.498375 2.000000 0.498856
v -0.401625 1.000000 -0.401143
v 1.098375 0.500000 -0.401143
v 1.098375 0.000000 -0.501143
v 1.098375 1.000000 -0.501144
v -0.401625 1.000000 -0.501143
v -0.401625 1.500000 -0.401143
v 1.098375 1.500000 -0.401144
v -0.401625 1.500000 -0.501143
v 1.098375 1.500000 -0.501144
v -0.401625 2.000000 -0.401143
v 1.098375 2.000000 -0.401144
v -0.401625 0.500000 -0.401143
v -0.501625 0.000000 -0.391143
v -0.401625 -0.000000 -0.501143
v -0.401625 -0.000000 -0.401143
vt 0.991316 0.020274
vt 0.992025 0.035748
vt 0.873777 0.035747
vt 0.991316 0.019774
vt 0.992025 0.035248
vt 0.873777 0.035247
vt 1.001871 0.023505
vt 1.002632 0.040132
vt 0.875573 0.040131
vt 0.996852 0.027127
vt 0.997657 0.335310
vt 0.872313 0.336621
vt 0.871508 0.028438
vt 0.999398 0.047189
vt 1.000000 0.016669
vt 0.871473 0.015326
vt 0.870871 0.045846
vt 1.000138 0.048072
vt 1.000740 0.017552
vt 0.872213 0.016210
vt 0.871611 0.046729
vt 0.602944 0.344720
vt 0.602944 1.001830
vt 0.854783 1.001830
vt 0.854783 0.344720
vt 0.872230 0.020274
vt 0.875545 0.032109
vt 0.996058 0.333028
vt 0.874678 0.333028
vt 0.881449 0.022267
vt 1.001705 0.040173
vt 0.877868 0.046318
vt 0.999555 0.044580
vt 0.874266 0.045201
vt 0.994570 0.020399
vt 0.996058 0.032109
vt 0.872230 0.019774
vt 0.999580 0.044700
vt 0.874291 0.045321
vt 0.994595 0.020519
vt 0.881478 0.022075
vt 1.001733 0.039981
vt 0.877897 0.046126
vt 0.998568 0.044658
vt 0.873279 0.045280
vt 0.993583 0.020477
vt 0.877541 0.045876
vt 0.881122 0.021825
vt 1.001377 0.039731
vt 0.872161 0.029792
vt 0.872161 0.333507
vt 0.997399 0.029792
vt 0.997399 0.333507
vt 0.997399 0.331410
vt 0.872161 0.331410
vt 0.000000 0.342160
vt 0.193680 0.342160
vt 0.000000 1.000000
vt 0.193680 1.000000
vt 0.873911 0.023505
vt 1.005318 0.044149
vt 0.879715 0.043169
vt 0.884734 0.019053
vt 0.886180 0.045343
vt 0.970150 0.024864
vt 0.974266 0.041742
vt 0.997289 0.333310
vt 0.997289 0.022666
vt 0.877704 0.022666
vt 0.877704 0.333310
vt 0.998100 0.332027
vt 0.881424 0.333076
vt 0.881424 0.017780
vt 0.998100 0.016731
vt 0.879946 0.018265
vt 0.996729 0.018265
vt 0.996729 0.040749
vt 0.879946 0.040749
vn 0.000000 -1.000000 0.000000
vn 0.000001 -1.000000 -0.000000
vn -0.000000 0.196116 -0.980581
vn -0.000000 0.196115 -0.980581
vn 0.000000 0.000000 1.000000
vn -0.000002 -1.000000 0.000000
vn -0.980581 0.196117 0.000000
vn -1.000000 -0.000000 0.000000
vn -0.099513 -0.000000 -0.995036
vn -0.980581 0.196116 0.000000
vn -0.000003 -1.000000 0.000000
vn -0.099510 -0.000000 -0.995037
vn -1.000000 0.000000 -0.000004
vn 1.000000 0.000000 0.000000
vn -1.000000 -0.000000 -0.000002
vn 0.000000 -1.000000 0.000001
usemtl House_Side_house_blue.tga
s off
f 10/1/1 11/2/1 12/3/1
f 5/4/2 9/5/2 8/6/2
f 6/7/1 1/8/1 3/9/1
f 28/10/3 30/11/3 31/12/3
f 28/10/3 31/12/3 29/13/3
f 26/14/1 28/15/1 29/16/1
f 26/14/1 29/16/1 27/17/1
f 25/10/3 26/11/3 27/12/3
f 25/10/3 27/12/3 24/13/3
f 21/18/1 25/19/1 24/20/1
f 21/18/1 24/20/1 18/21/1
f 14/10/3 21/11/3 18/12/3
f 14/10/4 18/12/4 17/13/4
f 16/22/5 19/23/5 20/24/5
f 16/22/5 20/24/5 15/25/5
f 10/1/6 12/3/6 26/26/6
f 12/27/7 13/28/7 30/29/7
f 26/30/8 30/31/8 28/32/8
f 12/33/9 30/34/9 26/35/9
f 11/36/10 13/28/10 12/27/10
f 5/4/11 8/6/11 21/37/11
f 8/38/9 26/39/9 21/40/9
f 21/41/8 26/42/8 25/43/8
f 3/44/12 21/45/12 32/46/12
f 14/47/13 32/48/13 21/49/13
f 1/50/10 5/51/10 3/52/10
f 5/51/10 21/53/10 3/52/10
f 8/50/10 9/52/10 10/54/10
f 8/50/7 10/54/7 26/55/7
f 2/56/14 15/57/14 4/58/14
f 15/57/14 20/59/14 4/58/14
f 3/9/11 32/60/11 6/7/11
f 32/61/15 34/62/15 35/63/15
f 32/64/12 35/65/12 33/66/12
f 22/67/3 23/68/3 34/69/3
f 22/67/3 34/69/3 32/70/3
f 6/71/10 32/72/10 33/73/10
f 6/71/10 33/73/10 7/74/10
f 14/75/16 17/76/16 22/77/16
f 14/75/16 22/77/16 32/78/16
