# Blender3D v249 OBJ File: Master.blend
# www.blender3d.org
mtllib fence_I.mtl
v 1.000061 5.000566 0.050026
v 1.000061 0.000566 0.050026
v -0.999939 0.000566 0.050026
v -0.999939 5.000566 0.050026
v -0.836975 5.022324 0.050026
v -0.005162 5.000566 0.050026
v 1.000716 5.051803 0.050026
v 1.000716 5.051803 -0.049974
v -0.005162 5.000566 -0.049974
v -0.836975 5.022324 -0.049974
v -0.999939 5.000566 -0.049974
v -0.999939 0.000566 -0.049974
v 1.000061 0.000566 -0.049974
v 1.000061 5.000566 -0.049974
vt 0.985237 0.996413
vt 0.740084 0.614032
vt 0.497466 0.996414
vt 0.014763 0.996414
vt 0.254848 0.614032
vt 0.995237 0.007730
vt 0.002263 0.007730
vt 0.262326 0.737205
vt 0.019633 0.997021
vt 0.502509 0.997021
vt 0.980368 0.997021
vt 0.742693 0.737204
vt 0.019632 0.001431
vt 0.980368 0.001431
vt 0.476562 0.988370
vt 0.347092 0.996658
vt 0.347092 0.004945
vt 0.476562 -0.003342
vt 0.606033 0.988370
vt 0.476562 0.996658
vt 0.476563 0.004945
vt 0.606033 -0.003342
vt 0.673303 0.208075
vt 0.650349 0.208387
vt 0.648153 0.046916
vt 0.671108 0.046603
vt 0.675510 0.370376
vt 0.652558 0.370688
vt 0.677716 0.532669
vt 0.654765 0.532981
vt 0.679934 0.695803
vt 0.656983 0.696115
vn 0.831996 -0.007080 0.554704
vn 0.374706 0.827967 0.417188
vn 0.000244 0.514237 0.857631
vn -0.690725 0.321085 0.647877
vn -0.075594 0.945372 0.317026
vn 0.707083 0.000000 0.707083
vn -0.447188 0.000000 0.894406
vn 0.813074 0.405988 -0.417188
vn 0.832026 -0.003540 -0.554704
vn -0.012940 0.514054 -0.857631
vn -0.409680 0.642170 -0.647877
vn -0.025361 0.948057 -0.317026
vn 0.447188 0.000000 -0.894406
vn -0.707083 0.000000 -0.707083
usemtl Fence_H_fence.tga
s 1
f 1/1/1 7/2/2 6/3/3
f 4/4/4 6/3/3 5/5/5
f 1/1/1 6/3/3 2/6/6
f 3/7/7 6/3/3 4/4/4
f 2/6/6 6/3/3 3/7/7
f 8/8/8 14/9/9 9/10/10
f 9/10/10 11/11/11 10/12/12
f 9/10/10 14/9/9 13/13/13
f 9/10/10 12/14/14 11/11/11
f 9/10/10 13/13/13 12/14/14
f 14/15/9 1/16/1 2/17/6
f 14/15/9 2/17/6 13/18/13
f 4/19/4 11/20/11 12/21/14
f 4/19/4 12/21/14 3/22/7
f 5/23/5 10/24/12 11/25/11
f 5/23/5 11/25/11 4/26/4
f 6/27/3 9/28/10 10/24/12
f 6/27/3 10/24/12 5/23/5
f 7/29/2 8/30/8 9/28/10
f 7/29/2 9/28/10 6/27/3
f 1/31/1 14/32/9 8/30/8
f 1/31/1 8/30/8 7/29/2
