# Blender3D v249 OBJ File: Master.blend
# www.blender3d.org
mtllib fence_x.mtl
v -0.049939 5.000566 1.000026
v -0.049939 0.000566 1.000026
v -0.049939 0.000566 -0.999974
v -0.049939 5.000566 -0.999974
v -0.049939 5.014984 -0.818128
v -0.049939 5.000566 -0.005198
v -0.049939 5.025775 0.750182
v 0.050061 5.025775 0.750182
v 0.050061 5.000566 -0.005198
v 0.050061 5.014984 -0.818128
v 0.050061 5.000566 -0.999974
v 0.050061 0.000566 -0.999974
v 0.050061 0.000566 1.000026
v 0.050061 5.000566 1.000026
v 1.000061 5.000566 0.050025
v 1.000061 0.000566 0.050026
v -0.999939 0.000566 0.050026
v -0.999939 5.000566 0.050025
v -0.314527 5.025775 0.050025
v -0.005162 5.000566 0.050025
v 0.876109 5.022178 0.050025
v 0.876109 5.022178 -0.049975
v -0.005162 5.000566 -0.049975
v -0.314527 5.025775 -0.049975
v -0.999939 5.000566 -0.049975
v -0.999939 0.000566 -0.049974
v 1.000061 0.000566 -0.049974
v 1.000061 5.000566 -0.049975
vt 0.985237 0.996413
vt 0.740084 0.614032
vt 0.497466 0.996414
vt 0.014763 0.996414
vt 0.254848 0.614032
vt 0.995237 0.007730
vt 0.002263 0.007730
vt 0.262326 0.737205
vt 0.019633 0.997021
vt 0.502509 0.997021
vt 0.980368 0.997021
vt 0.742693 0.737204
vt 0.019632 0.001431
vt 0.980368 0.001431
vt 0.476562 0.988370
vt 0.347092 0.996658
vt 0.347092 0.004945
vt 0.476562 -0.003342
vt 0.606033 0.988370
vt 0.476562 0.996658
vt 0.476563 0.004945
vt 0.606033 -0.003342
vt 0.673303 0.208075
vt 0.650349 0.208387
vt 0.648153 0.046916
vt 0.671108 0.046603
vt 0.675510 0.370376
vt 0.652558 0.370688
vt 0.677716 0.532669
vt 0.654765 0.532981
vt 0.679934 0.695803
vt 0.656983 0.696115
vn -0.652272 0.648976 0.391614
vn -0.316782 0.948424 0.010651
vn -0.857540 0.514359 0.000336
vn -0.655232 0.326579 -0.681143
vn -0.316507 0.947539 -0.044404
vn -0.707083 0.000000 0.707083
vn -0.894406 0.000000 -0.447188
vn 0.316782 0.946989 0.053011
vn 0.652272 0.324473 0.684988
vn 0.857540 0.514298 -0.008393
vn 0.655232 0.653188 -0.379406
vn 0.316507 0.948454 -0.013764
vn 0.894406 0.000000 0.447188
vn 0.707083 0.000000 -0.707083
vn 0.431654 0.633015 0.642567
vn 0.038942 0.947447 0.317454
vn 0.023652 0.513474 0.857753
vn -0.673421 0.330393 0.661275
vn 0.002411 0.948515 0.316660
vn 0.707083 0.000000 0.707083
vn -0.447188 0.000000 0.894406
vn 0.101260 0.942839 -0.317454
vn 0.697775 0.316507 -0.642567
vn 0.005493 0.513993 -0.857753
vn -0.354930 0.660817 -0.661275
vn 0.039796 0.947691 -0.316660
vn 0.447188 0.000000 -0.894406
vn -0.707083 0.000000 -0.707083
usemtl Fence_H_fence.tga
s 1
f 1/1/1 7/2/2 6/3/3
f 4/4/4 6/3/3 5/5/5
f 1/1/1 6/3/3 2/6/6
f 3/7/7 6/3/3 4/4/4
f 2/6/6 6/3/3 3/7/7
f 8/8/8 14/9/9 9/10/10
f 9/10/10 11/11/11 10/12/12
f 9/10/10 14/9/9 13/13/13
f 9/10/10 12/14/14 11/11/11
f 9/10/10 13/13/13 12/14/14
f 15/1/15 21/2/16 20/3/17
f 18/4/18 20/3/17 19/5/19
f 15/1/15 20/3/17 16/6/20
f 17/7/21 20/3/17 18/4/18
f 16/6/20 20/3/17 17/7/21
f 22/8/22 28/9/23 23/10/24
f 23/10/24 25/11/25 24/12/26
f 23/10/24 28/9/23 27/13/27
f 23/10/24 26/14/28 25/11/25
f 23/10/24 27/13/27 26/14/28
f 28/15/23 15/16/15 16/17/20
f 28/15/23 16/17/20 27/18/27
f 18/19/18 25/20/25 26/21/28
f 18/19/18 26/21/28 17/22/21
f 19/23/19 24/24/26 25/25/25
f 19/23/19 25/25/25 18/26/18
f 20/27/17 23/28/24 24/24/26
f 20/27/17 24/24/26 19/23/19
f 21/29/16 22/30/22 23/28/24
f 21/29/16 23/28/24 20/27/17
f 15/31/15 28/32/23 22/30/22
f 15/31/15 22/30/22 21/29/16
f 14/15/9 1/16/1 2/17/6
f 14/15/9 2/17/6 13/18/13
f 4/19/4 11/20/11 12/21/14
f 4/19/4 12/21/14 3/22/7
f 5/23/5 10/24/12 11/25/11
f 5/23/5 11/25/11 4/26/4
f 6/27/3 9/28/10 10/24/12
f 6/27/3 10/24/12 5/23/5
f 7/29/2 8/30/8 9/28/10
f 7/29/2 9/28/10 6/27/3
f 1/31/1 14/32/9 8/30/8
f 1/31/1 8/30/8 7/29/2
