# Blender3D v249 OBJ File: Master.blend
# www.blender3d.org
mtllib fence_L.mtl
v 1.000061 5.000566 0.050026
v 1.000061 0.000566 0.050026
v -0.046729 0.000566 0.050026
v -0.051952 5.000566 0.050026
v 0.701095 5.013930 0.050026
v 0.701095 5.013930 -0.049974
v -0.051952 5.000566 -0.049974
v -0.046729 0.000566 -0.049974
v 1.000061 0.000566 -0.049974
v 1.000061 5.000566 -0.049974
v 0.047972 5.000566 1.002115
v 0.047972 0.000566 1.002115
v 0.047972 0.000566 0.055325
v 0.047972 5.000566 0.050101
v 0.047972 5.027016 0.044477
v -0.052028 5.027016 0.044477
v -0.052028 0.000566 1.002115
v -0.052028 5.000566 1.002115
vt 0.985237 0.996413
vt 0.740084 0.614032
vt 0.497466 0.996414
vt 0.965706 1.000320
vt 0.516997 1.000320
vt 0.987424 0.007730
vt 0.995237 0.007730
vt 0.502263 0.007730
vt 0.262326 0.737205
vt 0.019633 0.997021
vt 0.475166 0.997021
vt 0.467353 1.000927
vt 0.019632 0.001431
vt 0.471259 0.997021
vt -0.011618 0.001431
vt 0.476462 0.001431
vt 0.476562 0.988370
vt 0.347092 0.996658
vt 0.347092 0.004945
vt 0.476562 -0.003342
vt 0.677716 0.532669
vt 0.654765 0.532981
vt 0.652558 0.370688
vt 0.675510 0.370376
vt 0.679934 0.695803
vt 0.656983 0.696115
vt 0.483087 0.997626
vt 0.011913 0.003006
vt 0.480503 0.003006
vt 0.011913 0.997625
vt 0.250205 0.745087
vt 0.000000 0.000000
vt 1.000000 1.000000
vt 1.000000 0.000000
vt 0.746176 1.221528
vt 0.990791 0.001128
vt 0.990791 0.985582
vt 0.507076 0.001128
vt 0.507076 0.985582
vt 0.464533 0.075719
vt 0.489842 0.075719
vt 0.489842 0.989281
vt 0.464533 0.989281
vn 0.359539 0.659474 0.660146
vn 0.002899 0.948637 0.316324
vn -0.007874 0.367168 0.930113
vn 0.707083 0.000000 0.707083
vn -0.896939 -0.000916 0.442091
vn 0.022614 0.948363 -0.316324
vn 0.674886 0.329722 -0.660146
vn -0.491745 0.482589 -0.724754
vn 0.447188 0.000000 -0.894406
vn -0.707083 -0.000732 -0.707083
vn -0.404523 0.808771 0.426862
vn 0.444533 0.796258 -0.410260
vn -0.441633 0.259102 -0.858943
vn 0.662587 0.331156 0.671743
vn 0.832087 -0.114597 -0.542619
vn -0.708060 -0.000366 0.706107
vn 0.894406 0.000000 0.447188
vn 1.000000 0.000000 0.000000
usemtl Fence_H_fence.tga
s 1
f 1/1/1 5/2/2 4/3/3
f 1/4/1 4/5/3 2/6/4
f 2/7/4 4/3/3 3/8/5
f 6/9/6 10/10/7 7/11/8
f 7/12/8 10/10/7 9/13/9
f 7/14/8 9/15/9 8/16/10
f 10/17/7 1/18/1 2/19/4
f 10/17/7 2/19/4 9/20/9
f 5/21/2 6/22/6 7/23/8
f 5/21/2 7/23/8 4/24/3
f 1/25/1 10/26/7 6/22/6
f 1/25/1 6/22/6 5/21/2
f 18/25/11 15/22/12 16/21/13
f 18/25/11 11/26/14 15/22/12
f 16/21/13 15/22/12 14/23/15
f 11/17/14 17/19/16 12/20/17
f 11/17/14 18/18/11 17/19/16
f 14/27/15 12/28/17 13/29/18
f 14/27/15 11/30/14 12/28/17
f 15/31/12 11/30/14 14/27/15
f 4/32/3 16/33/13 14/34/15
f 16/35/13 17/36/16 18/37/11
f 3/38/5 17/36/16 16/35/13
f 3/38/5 16/35/13 4/39/3
f 3/40/5 4/41/3 7/42/8
f 3/40/5 7/42/8 8/43/10
