# Blender3D v249 OBJ File: Master.blend
# www.blender3d.org
mtllib mc.mtl
v 1.001625 2.000674 -1.007839
v 1.001625 2.000674 0.992161
v 1.001625 0.000674 0.992161
v 1.001625 0.000675 -1.007840
v -0.998375 2.000675 -1.007839
v -0.998375 2.000674 0.992161
v -0.998375 0.000674 0.992160
v -0.998375 0.000675 -1.007839
vt 0.000000 0.000000
vt 1.000000 0.000000
vt 1.000000 1.000000
vt 0.000000 1.000000
vn -0.000000 0.000000 -1.000000
vn 0.000000 -1.000000 -0.000000
vn 0.000000 -0.000000 1.000000
vn 0.000000 1.000000 0.000000
vn -1.000000 0.000000 0.000000
vn 1.000000 -0.000000 -0.000000
usemtl Stone_mc_stone.tga
s off
f 5/1/1 1/2/1 4/3/1
f 5/1/1 4/3/1 8/4/1
f 3/1/2 7/2/2 8/3/2
f 3/1/2 8/3/2 4/4/2
f 2/1/3 6/2/3 3/4/3
f 6/2/3 7/3/3 3/4/3
f 1/1/4 5/2/4 2/4/4
f 5/2/4 6/3/4 2/4/4
f 5/2/5 8/3/5 6/1/5
f 8/3/5 7/4/5 6/1/5
f 1/1/6 2/2/6 3/3/6
f 1/1/6 3/3/6 4/4/6
