# Blender3D v249 OBJ File: Master.blend
# www.blender3d.org
mtllib mc_t.mtl
v 0.107114 0.717051 -1.166952
v 0.107114 0.570046 -1.028396
v -0.108958 0.570046 -1.028396
v -0.108958 0.717051 -1.166952
v 0.107114 1.705948 -0.198066
v 0.107114 1.553162 -0.045281
v -0.108958 1.553162 -0.045281
v -0.108958 1.705948 -0.198066
vt -0.000000 1.000000
vt 0.000000 -0.000000
vt 1.000000 0.000000
vt 1.000000 1.000000
vt 0.000000 0.830000
vt 1.000000 0.830000
vn 0.000000 0.699842 -0.714297
vn -1.000000 0.000000 -0.000000
vn -0.000000 -0.707107 0.707107
vn 1.000000 -0.000000 0.000000
vn -0.000000 0.707107 0.707107
vn 0.000000 -0.685886 -0.727709
vn -0.000000 -0.685885 -0.727710
usemtl mcToch_mc_torch.tga
s off
f 5/1/1 1/2/1 4/3/1
f 5/1/1 4/3/1 8/4/1
f 3/3/2 7/4/2 4/2/2
f 7/4/2 8/1/2 4/2/2
f 2/3/3 6/4/3 7/1/3
f 2/3/3 7/1/3 3/2/3
f 1/3/4 5/4/4 6/1/4
f 1/3/4 6/1/4 2/2/4
f 5/5/5 8/6/5 6/1/5
f 8/6/5 7/4/5 6/1/5
f 1/2/6 2/3/6 3/4/6
f 1/2/7 3/4/7 4/1/7
