# Blender3D v249 OBJ File: Master.blend
# www.blender3d.org
mtllib officechair.mtl
v -0.663678 0.028293 0.317255
v -0.567431 0.126102 0.260826
v -0.544543 0.126102 0.299865
v -0.640790 0.028293 0.356294
v -0.748055 0.139863 0.366724
v -0.651807 0.237671 0.310295
v -0.628919 0.237671 0.349334
v -0.725166 0.139863 0.405763
v -0.501192 0.028293 -0.523230
v -0.424115 0.126102 -0.442566
v -0.456833 0.126102 -0.411302
v -0.533911 0.028293 -0.491966
v -0.568763 0.139863 -0.593945
v -0.491686 0.237671 -0.513281
v -0.524404 0.237671 -0.482017
v -0.601482 0.139863 -0.562681
v 0.308095 0.028293 -0.665154
v 0.359777 0.126102 -0.764031
v 0.399883 0.126102 -0.743068
v 0.348201 0.028293 -0.644191
v 0.262787 0.139863 -0.578472
v 0.314469 0.237671 -0.677349
v 0.354575 0.237671 -0.656386
v 0.302893 0.139863 -0.557509
v 0.721536 0.028293 0.082032
v 0.832312 0.126102 0.095308
v 0.826927 0.126102 0.140241
v 0.716151 0.028293 0.126964
v 0.624422 0.139863 0.070392
v 0.735199 0.237671 0.083669
v 0.729813 0.237671 0.128602
v 0.619037 0.139863 0.115325
v 0.146495 0.028293 0.738645
v 0.168554 0.126102 0.848011
v 0.124193 0.126102 0.856959
v 0.102134 0.028293 0.747592
v 0.127156 0.139863 0.642767
v 0.149215 0.237671 0.752133
v 0.104854 0.237671 0.761081
v 0.082795 0.139863 0.651714
v 0.073012 0.500908 -0.042227
v 0.063109 0.500908 0.051187
v -0.028792 0.500908 0.070635
v -0.075688 0.500908 -0.010758
v -0.012770 0.500908 -0.080511
v 0.073012 1.200908 -0.042227
v 0.063109 1.200908 0.051187
v -0.028792 1.200908 0.070635
v -0.075688 1.200908 -0.010758
v -0.012770 1.200908 -0.080511
v -0.036071 0.505232 -0.191215
v 0.168303 0.505232 -0.094563
v 0.139537 0.505232 0.129676
v -0.082616 0.505232 0.171611
v -0.191148 0.505232 -0.026710
v 0.305966 0.405232 -0.673219
v 0.733456 0.405232 0.081901
v 0.145856 0.405232 0.719558
v -0.640997 0.405232 0.359441
v -0.544939 0.405232 -0.501945
v -0.508638 0.405232 -0.539169
v 0.353806 0.405232 -0.652851
v 0.726780 0.405232 0.133465
v 0.095744 0.405232 0.733424
v -0.671025 0.405232 0.316994
v -0.036071 0.305232 -0.191215
v 0.168303 0.305232 -0.094563
v 0.139537 0.305232 0.129676
v -0.082616 0.305232 0.171611
v -0.191148 0.305232 -0.026710
v 0.356318 0.205232 -0.783495
v 0.854066 0.205232 0.095729
v 0.169893 0.205232 0.838186
v -0.746280 0.205232 0.418884
v -0.634435 0.205232 -0.584072
v -0.592168 0.205232 -0.627414
v 0.412020 0.205232 -0.759780
v 0.846292 0.205232 0.155768
v 0.111545 0.205232 0.854331
v -0.781243 0.205232 0.369460
v 0.420037 1.139630 -0.531262
v 0.516733 1.115013 0.512884
v -0.527631 1.115013 0.512884
v -0.430936 1.139630 -0.531263
v -0.515233 1.250921 -0.615560
v -0.631087 1.251595 0.616339
v 0.620188 1.251595 0.616340
v 0.504334 1.250921 -0.615560
v 0.332872 1.353308 -0.444098
v 0.409759 1.377251 0.405911
v -0.420658 1.377251 0.405911
v -0.343771 1.353308 -0.444098
v -0.208442 2.208833 -0.495679
v -0.254574 1.698828 -0.469859
v 0.243676 1.698828 -0.469858
v 0.197544 2.208833 -0.495679
v 0.300421 2.311710 -0.606097
v 0.369933 1.572571 -0.605370
v -0.380831 1.572571 -0.605370
v -0.311319 2.311710 -0.606097
v -0.260741 2.261132 -0.726117
v -0.318758 1.634644 -0.752665
v 0.307860 1.634644 -0.752664
v 0.249842 2.261132 -0.726117
v 0.085489 1.645949 -0.562973
v 0.085489 1.286599 -0.516071
v -0.093733 1.286599 -0.516071
v -0.093733 1.645949 -0.562973
v -0.093636 1.634018 -0.606666
v -0.093636 1.256088 -0.559970
v 0.085585 1.256088 -0.559970
v 0.085585 1.634018 -0.606666
vt 0.734110 0.966034
vt 0.196983 0.966034
vt 0.055216 0.809840
vt 0.924304 0.809840
vt 0.504725 0.713306
vt 0.744152 0.543265
vt 0.744152 0.104736
vt 0.206075 0.593095
vt 0.206075 0.054906
vt 0.016719 0.993281
vt 0.021719 0.701719
vt 0.983281 0.988281
vt 0.988281 0.696719
vt 0.173891 0.689891
vt 0.974109 0.689891
vt 0.173891 0.990109
vt 0.974109 0.990109
vt 0.862831 0.296442
vt 0.862831 0.384339
vt 0.891477 0.384292
vt 0.891477 0.296395
vt 0.000000 0.000000
vt 1.000000 0.000000
vt 0.000000 1.000000
vt 1.000000 1.000000
vt 0.048823 0.981740
vt 0.048824 0.698260
vt 0.905177 0.981740
vt 0.905177 0.698260
vt 0.152762 0.646408
vt 0.787593 0.586706
vt 0.787593 0.061295
vt 0.152762 0.001593
vt 0.261202 0.110032
vt 0.261201 0.537969
vt 0.699234 0.149654
vt 0.699234 0.498347
vt 0.815864 0.175116
vt 0.815864 0.506968
vt 0.261183 0.137408
vt 0.261183 0.544676
vt 0.123867 0.647878
vt 0.927753 0.591059
vt 0.927753 0.091025
vt 0.123867 0.034206
vt 0.191377 0.084944
vt 0.191377 0.597140
vt 0.872744 0.132367
vt 0.872744 0.549716
vt 0.016839 0.999850
vt 0.018093 0.697796
vt 0.986435 0.992452
vt 0.987689 0.690398
vt 0.006681 0.690785
vt 0.993319 0.694881
vt 0.010777 0.993319
vt 0.997415 0.997415
vt 0.489678 0.694849
vt 0.463079 0.573702
vt 0.500338 0.676741
vt 0.473838 0.556175
vt 0.346077 0.696694
vt 0.627709 0.696694
vt 0.627709 0.978326
vt 0.346077 0.978326
vt -0.077103 0.741251
vt -0.075283 0.918163
vt 0.991438 0.830081
vt 1.204692 0.998589
vt 0.820855 0.713431
vt 0.819816 0.898921
vt 1.553600 0.812767
vt 1.737859 1.003447
vt 0.699543 0.749675
vt 0.699454 0.911120
vt -0.220036 0.829592
vt -0.380235 0.994614
vt 0.353541 0.720210
vt 0.354829 0.881091
vt 1.324357 0.797480
vt 1.538278 0.975479
vt -0.074938 0.743619
vt -0.074334 0.914176
vt -0.523579 0.831446
vt -0.602161 0.953889
vt -0.519258 0.837013
vt -0.598196 0.968803
vt -0.298260 0.783550
vt -0.621918 1.003447
vt 1.585330 0.831180
vt 1.733893 0.994615
vt -0.327589 0.809408
vt -0.496743 0.975479
vt 0.954371 0.806156
vt 1.243873 0.983674
vt 0.990122 0.993369
vt 0.016269 0.993369
vt 0.016269 0.696856
vt 0.990122 0.696856
vt 0.009432 0.999192
vt 0.009432 0.687680
vt 0.943824 0.687680
vt 0.943824 0.999192
vt 0.017199 0.996362
vt 0.017199 0.689270
vt 0.990379 0.689270
vt 0.990379 0.996362
vt 0.050270 0.658526
vt 0.056802 0.658526
vt 0.050270 0.665058
vt 0.056802 0.665058
vt 0.029912 0.466136
vt 0.552296 0.466136
vt 0.029912 0.988520
vt 0.552296 0.988520
vn -0.131840 0.912107 -0.388104
vn -0.407941 0.909055 -0.084689
vn -0.117588 0.962584 0.244026
vn 0.322642 0.945494 -0.043764
vn 0.349620 0.870968 0.345164
vn -0.290872 0.641530 -0.709799
vn 0.478317 0.310495 -0.821436
vn -0.426466 -0.365581 -0.827296
vn 0.439436 -0.367138 -0.819788
vn -0.321818 0.717093 -0.618183
vn 0.740654 0.598193 -0.305856
vn 0.552019 0.464980 -0.692099
vn 0.749290 -0.399304 -0.528245
vn -0.313791 0.528398 -0.788873
vn -0.748589 -0.660787 0.054201
vn 0.280709 -0.388287 0.877712
vn -0.505478 -0.349773 0.788720
vn 0.687582 0.707968 0.161199
vn -0.688467 0.420972 0.590564
vn -0.551836 -0.725303 0.411512
vn -0.719626 0.603015 0.344157
vn 0.621876 0.749504 0.226905
vn 0.744987 -0.664083 -0.062746
vn 0.283731 -0.234230 0.929838
vn -0.422987 -0.149571 0.893674
vn 0.191778 0.454207 0.869991
vn -0.189337 0.258980 0.947111
vn 0.222602 0.942198 -0.250343
vn -0.120701 0.978668 -0.166234
vn 0.150945 0.983245 0.102084
vn -0.218329 0.957274 0.189581
vn -0.728050 0.278085 0.626545
vn -0.644887 0.253792 -0.720878
vn 0.636372 0.252998 -0.728690
vn 0.718925 0.276681 0.637593
vn 0.518906 -0.729972 0.444807
vn -0.491470 -0.749046 0.444227
vn 0.472213 -0.711539 -0.520280
vn -0.446455 -0.730064 -0.517350
vn 0.631733 0.712088 0.306253
vn -0.402112 0.605670 0.686575
vn 0.324503 0.727744 0.604175
vn 0.670339 0.583819 -0.457991
vn 0.095553 0.725974 -0.681021
vn -0.809381 0.586535 -0.029298
vn -0.285318 -0.424055 -0.859493
vn 0.961455 -0.261696 -0.084231
vn -0.613208 0.740867 -0.273965
vn -0.236518 0.563494 0.791498
vn -0.496139 0.420118 0.759789
vn 0.590930 0.462874 0.660665
vn -0.864834 0.496353 0.075320
vn -0.228401 0.385876 0.893796
vn -0.261910 0.479049 -0.837794
vn -0.913846 0.405957 0.007172
vn 0.709281 0.481277 0.515030
vn 0.732231 0.403638 -0.548540
vn -0.985504 0.071963 -0.153569
vn -0.451125 0.071963 0.889523
vn 0.706809 0.071963 0.703696
vn 0.887539 0.071963 -0.455031
vn -0.158452 0.071963 -0.984710
vn -0.207038 0.000000 -0.978332
vn 0.866451 0.000000 -0.499222
vn -0.991272 0.000000 0.131596
vn -0.941649 0.000000 -0.336497
vn -0.407544 0.000000 0.913175
vn 0.742546 0.000000 0.669790
vn 0.404859 0.053529 -0.912778
vn 0.597827 -0.690115 -0.407819
vn -0.512742 0.061800 -0.856288
vn -0.616169 -0.721030 0.316904
vn -0.404859 -0.053529 0.912778
vn -0.597827 0.690115 0.407819
vn 0.512742 -0.061800 0.856288
vn 0.616169 0.721030 -0.316904
vn -0.894406 0.061800 -0.442915
vn 0.266793 -0.721030 -0.639454
vn -0.358898 -0.690115 0.628407
vn -0.877651 0.053529 0.476272
vn 0.894406 -0.061800 0.442915
vn -0.266793 0.721030 0.639454
vn 0.877651 -0.053529 -0.476272
vn 0.358898 0.690115 -0.628407
vn -0.889065 0.053529 0.454604
vn -0.721244 -0.690115 -0.059267
vn -0.140355 0.061800 0.988159
vn 0.678274 -0.721030 0.141453
vn 0.889065 -0.053529 -0.454604
vn 0.721244 0.690115 0.059267
vn 0.140355 -0.061800 -0.988159
vn -0.678274 0.721030 -0.141453
vn -0.016114 -0.188818 -0.981872
vn 0.454909 -0.883084 -0.114811
vn -0.533372 -0.845210 0.032685
vn -0.958770 0.281564 -0.038392
vn 0.145421 -0.053529 0.987915
vn -0.380413 0.814722 0.437574
vn 0.988311 -0.037843 -0.147526
vn 0.283700 0.940764 -0.185553
vn -0.980163 0.061800 0.188238
vn -0.174291 -0.721030 -0.670583
vn 0.094272 -0.690115 0.717490
vn -0.410810 0.053529 0.910123
vn 0.980163 -0.061800 -0.188238
vn 0.174291 0.721030 0.670583
vn 0.410810 -0.053529 -0.910123
vn -0.094272 0.690115 -0.717490
usemtl Office_Chair_officechair.tga
s 1
f 51/1/1 55/2/2 54/3/3
f 52/4/4 51/1/1 54/3/3
f 52/4/4 54/3/3 53/5/5
f 101/6/6 104/7/7 102/8/8
f 104/7/7 103/9/9 102/8/8
f 51/10/1 52/11/4 56/12/10
f 52/11/4 62/13/11 56/12/10
f 112/14/12 111/15/13 109/16/14
f 111/15/13 110/17/15 109/16/14
f 106/18/16 107/19/17 110/20/15
f 106/18/16 110/20/15 111/21/13
f 105/14/18 106/15/16 111/17/13
f 105/14/18 111/17/13 112/16/12
f 108/22/19 105/23/18 109/24/14
f 105/23/18 112/25/12 109/24/14
f 107/14/17 108/15/19 110/16/15
f 108/15/19 109/17/14 110/16/15
f 107/26/17 106/27/16 108/28/19
f 106/27/16 105/29/18 108/28/19
f 102/8/8 99/30/20 100/31/21
f 102/8/8 100/31/21 101/6/6
f 101/6/6 100/31/21 97/32/22
f 101/6/6 97/32/22 104/7/7
f 104/7/7 97/32/22 98/33/23
f 104/7/7 98/33/23 103/9/9
f 103/9/9 98/33/23 102/8/8
f 98/33/23 99/30/20 102/8/8
f 98/33/23 95/34/24 99/30/20
f 95/34/24 94/35/25 99/30/20
f 97/32/22 96/36/26 95/34/24
f 97/32/22 95/34/24 98/33/23
f 100/31/21 93/37/27 96/36/26
f 100/31/21 96/36/26 97/32/22
f 99/30/20 94/35/25 100/31/21
f 94/35/25 93/37/27 100/31/21
f 96/36/26 93/37/27 95/34/24
f 93/37/27 94/35/25 95/34/24
f 89/38/28 92/39/29 90/40/30
f 92/39/29 91/41/31 90/40/30
f 86/42/32 91/41/31 85/43/33
f 91/41/31 92/39/29 85/43/33
f 85/43/33 92/39/29 89/38/28
f 85/43/33 89/38/28 88/44/34
f 88/44/34 89/38/28 87/45/35
f 89/38/28 90/40/30 87/45/35
f 87/45/35 90/40/30 91/41/31
f 87/45/35 91/41/31 86/42/32
f 82/46/36 87/45/35 83/47/37
f 87/45/35 86/42/32 83/47/37
f 81/48/38 88/44/34 87/45/35
f 81/48/38 87/45/35 82/46/36
f 84/49/39 85/43/33 81/48/38
f 85/43/33 88/44/34 81/48/38
f 83/47/37 86/42/32 85/43/33
f 83/47/37 85/43/33 84/49/39
f 53/50/5 54/51/3 58/52/40
f 54/51/3 64/53/41 58/52/40
f 52/50/4 53/51/5 63/53/42
f 52/50/4 63/53/42 57/52/43
f 51/54/1 61/55/44 55/56/2
f 61/55/44 60/57/45 55/56/2
f 51/58/1 71/59/46 52/60/4
f 71/59/46 77/61/47 52/60/4
f 54/50/3 55/51/2 65/53/48
f 54/50/3 65/53/48 59/52/49
f 64/62/41 79/63/50 73/64/51
f 64/62/41 73/64/51 58/65/40
f 65/62/48 80/63/52 59/65/49
f 80/63/52 74/64/53 59/65/49
f 61/62/44 76/63/54 60/65/45
f 76/63/54 75/64/55 60/65/45
f 56/62/10 62/63/11 71/65/46
f 62/63/11 77/64/47 71/65/46
f 57/62/43 63/63/42 78/64/56
f 57/62/43 78/64/56 72/65/57
f 55/66/2 70/67/58 65/68/48
f 70/67/58 80/69/52 65/68/48
f 54/70/3 69/71/59 64/72/41
f 69/71/59 79/73/50 64/72/41
f 53/74/5 68/75/60 63/76/42
f 68/75/60 78/77/56 63/76/42
f 52/78/4 67/79/61 62/80/11
f 67/79/61 77/81/47 62/80/11
f 51/82/1 66/83/62 61/84/44
f 66/83/62 76/85/54 61/84/44
f 55/66/2 60/86/45 70/67/58
f 60/86/45 75/87/55 70/67/58
f 54/70/3 59/88/49 69/71/59
f 59/88/49 74/89/53 69/71/59
f 53/74/5 58/90/40 68/75/60
f 58/90/40 73/91/51 68/75/60
f 52/78/4 57/92/43 67/79/61
f 57/92/43 72/93/57 67/79/61
f 51/82/1 56/94/10 66/83/62
f 56/94/10 71/95/46 66/83/62
f 45/96/63 50/97/63 46/98/64
f 45/96/63 46/98/64 41/99/64
f 45/100/63 44/101/65 49/102/66
f 45/100/63 49/102/66 50/103/63
f 44/104/65 43/105/67 48/106/67
f 44/104/65 48/106/67 49/107/66
f 43/100/67 42/101/68 48/103/67
f 42/101/68 47/102/68 48/103/67
f 42/100/68 41/101/64 46/102/64
f 42/100/68 46/102/64 47/103/68
f 37/108/69 33/109/70 40/110/71
f 33/109/70 36/111/72 40/110/71
f 35/108/73 39/109/74 36/110/72
f 39/109/74 40/111/71 36/110/72
f 34/108/75 38/109/76 39/111/74
f 34/108/75 39/111/74 35/110/73
f 33/108/70 37/109/69 38/111/76
f 33/108/70 38/111/76 34/110/75
f 37/108/69 40/109/71 38/110/76
f 40/109/71 39/111/74 38/110/76
f 33/108/70 34/109/75 36/110/72
f 34/109/75 35/111/73 36/110/72
f 29/108/77 25/109/78 28/111/79
f 29/108/77 28/111/79 32/110/80
f 27/108/81 31/109/82 28/110/79
f 31/109/82 32/111/80 28/110/79
f 26/108/83 30/109/84 27/110/81
f 30/109/84 31/111/82 27/110/81
f 25/108/78 29/109/77 30/111/84
f 25/108/78 30/111/84 26/110/83
f 29/108/77 32/109/80 31/111/82
f 29/108/77 31/111/82 30/110/84
f 25/108/78 26/109/83 27/111/81
f 25/108/78 27/111/81 28/110/79
f 21/108/85 17/109/86 24/110/87
f 17/109/86 20/111/88 24/110/87
f 19/108/89 23/109/90 20/110/88
f 23/109/90 24/111/87 20/110/88
f 18/108/91 22/109/92 23/111/90
f 18/108/91 23/111/90 19/110/89
f 17/108/86 21/109/85 22/111/92
f 17/108/86 22/111/92 18/110/91
f 21/108/85 24/109/87 22/110/92
f 24/109/87 23/111/90 22/110/92
f 17/108/86 18/109/91 20/110/88
f 18/109/91 19/111/89 20/110/88
f 13/108/93 9/109/94 12/111/95
f 13/108/93 12/111/95 16/110/96
f 11/108/97 15/109/98 16/111/96
f 11/108/97 16/111/96 12/110/95
f 10/112/99 14/113/100 11/114/97
f 14/113/100 15/115/98 11/114/97
f 9/108/94 13/109/93 10/110/99
f 13/109/93 14/111/100 10/110/99
f 13/108/93 16/109/96 14/110/100
f 16/109/96 15/111/98 14/110/100
f 9/108/94 10/109/99 11/111/97
f 9/108/94 11/111/97 12/110/95
f 5/108/101 1/109/102 4/111/103
f 5/108/101 4/111/103 8/110/104
f 3/108/105 7/109/106 4/110/103
f 7/109/106 8/111/104 4/110/103
f 2/108/107 6/109/108 3/110/105
f 6/109/108 7/111/106 3/110/105
f 1/108/102 5/109/101 6/111/108
f 1/108/102 6/111/108 2/110/107
f 5/108/101 8/109/104 7/111/106
f 5/108/101 7/111/106 6/110/108
f 1/108/102 2/109/107 3/111/105
f 1/108/102 3/111/105 4/110/103
