# Blender3D v249 OBJ File: Master.blend
# www.blender3d.org
mtllib recyclelid.mtl
v -1.058126 0.200246 0.269240
v -1.087487 0.090668 0.269240
v -1.110043 0.096711 0.003723
v -1.080681 0.206289 0.003723
v -0.967311 0.175912 0.300579
v -0.996672 0.066334 0.300579
v -1.088369 0.090904 -0.261234
v -1.059008 0.200482 -0.261234
v -0.966819 0.175780 -0.293047
v -0.996180 0.066202 -0.293047
v -0.997035 0.067550 -0.292263
v -0.968233 0.175040 -0.292263
v -1.058666 0.199272 -0.260533
v -1.087468 0.091781 -0.260534
v -0.997518 0.067679 0.299796
v -0.968716 0.175170 0.299796
v -1.079927 0.204968 0.003723
v -1.108729 0.097478 0.003723
v -1.086603 0.091550 0.268539
v -1.057801 0.199040 0.268539
v 1.145113 -0.174221 0.402480
v 1.145113 -0.174221 0.622292
v 0.973449 -0.264876 0.622292
v 0.973449 -0.264876 0.402480
v 1.104521 0.158066 0.424461
v 1.104521 0.158066 0.600311
v 0.984801 0.163298 0.600311
v 0.984801 0.163298 0.424461
v 1.145113 -0.174221 -0.614421
v 1.145113 -0.174221 -0.394609
v 0.973449 -0.264876 -0.394609
v 0.973449 -0.264876 -0.614421
v 1.104521 0.158066 -0.592439
v 1.104521 0.158066 -0.416590
v 0.984801 0.163298 -0.416590
v 0.984801 0.163298 -0.592439
v -0.968344 -0.038250 1.052818
v -0.968344 -0.038250 -1.037335
v 0.946495 -0.038250 -1.037335
v 0.946494 -0.038250 1.052819
v -1.062401 -0.038250 -0.932827
v 1.007314 -0.040466 -0.932827
v -1.062401 -0.038250 0.948311
v 1.040551 -0.038250 0.948311
v -0.686173 0.275273 -0.932828
v 0.670450 0.229334 -0.932827
v -0.686174 0.275273 0.948310
v 0.670449 0.229335 0.948311
v 1.037489 0.217084 -0.650657
v -0.957893 0.275273 -0.650657
v 1.037489 0.217084 0.666140
v -0.957893 0.275273 0.666139
v -0.728247 0.275273 -0.867848
v 0.712522 0.229334 -0.867848
v -0.728247 0.275273 0.883331
v 0.712522 0.229335 0.883332
vt 0.823233 0.376599
vt 0.648970 0.722133
vt 0.823233 0.722134
vt 0.648970 0.376598
vt 0.887075 0.722135
vt 0.887076 0.376600
vt 0.475122 0.376600
vt 0.475122 0.722135
vt 0.410313 0.376600
vt 0.410313 0.722135
vt 0.476397 0.364001
vt 0.476398 0.716931
vt 0.410313 0.716931
vt 0.410313 0.364001
vt 0.651064 0.364000
vt 0.651064 0.716930
vt 0.826150 0.716931
vt 0.826150 0.364001
vt 0.891249 0.364001
vt 0.891249 0.716931
vt 0.364589 0.986490
vt 0.355968 0.006490
vt 0.372526 0.986490
vt 0.738406 0.986490
vt 0.754964 0.006490
vt 0.746343 0.986490
vt 0.489459 0.986490
vt 0.506017 0.006490
vt 0.497396 0.986490
vt 0.613536 0.986490
vt 0.604915 0.006490
vt 0.621473 0.986490
vt 0.862483 0.986490
vt 0.853862 0.006490
vt -0.657214 0.994491
vt -0.179105 0.010490
vt -0.571815 0.010490
vt -0.145952 0.994491
vt 0.942518 0.994491
vt 0.516655 0.010490
vt 0.431255 0.994491
vt 0.909364 0.010490
vt -0.441919 0.994491
vt -0.407214 0.994491
vt -0.474913 0.010490
vt -0.321815 0.010490
vt 1.062463 0.010490
vt 0.977222 0.994491
vt -0.111247 0.994491
vt -0.026006 0.010490
vt 0.363556 0.010490
vt 0.396550 0.994491
vt 0.985020 0.994491
vt 0.562463 0.010490
vt 0.477222 0.994491
vt 0.952025 0.010490
vt 0.481753 0.994491
vt 0.956556 0.010490
vt 0.566994 0.010490
vt 0.989550 0.994491
vt 0.809125 0.076424
vt 0.788876 0.165079
vt 0.809125 0.145378
vt 0.788876 0.056723
vt 0.719923 0.165079
vt 0.719923 0.056723
vt 0.699674 0.145378
vt 0.699674 0.076424
vt 0.793164 0.951811
vt 0.791073 0.062710
vt 0.798359 0.062710
vt 0.798359 0.970341
vt 0.765636 0.062710
vt 0.767201 0.951810
vt 0.771141 0.062710
vt 0.771141 0.970341
vt 0.793164 0.701811
vt 0.767201 0.701810
vt 0.657472 0.951810
vt 0.659014 0.062710
vt 0.653589 0.062710
vt 0.653589 0.970341
vt 0.633452 0.062710
vt 0.631375 0.951810
vt 0.626212 0.062710
vt 0.626212 0.970341
vt 0.657472 0.701810
vt 0.631375 0.701810
vn -0.760002 0.203619 0.617176
vn -0.965911 0.258797 0.001587
vn -0.310038 0.083071 0.947081
vn -0.870449 0.233222 -0.433454
vn -0.616321 0.165136 -0.769951
vn -0.310038 0.083071 -0.947081
vn -0.613330 0.164342 -0.772515
vn -0.869442 0.232948 -0.435591
vn -0.305429 0.081820 -0.948668
vn -0.965911 0.258797 0.001617
vn -0.758080 0.203101 0.619709
vn -0.305429 0.081820 0.948668
vn -0.544062 0.681347 0.489656
vn 0.506602 0.731760 0.455941
vn -0.544061 0.681347 -0.489657
vn 0.596185 0.731235 -0.331449
vn -0.000000 0.535091 0.844794
vn 0.014879 0.466656 0.884314
vn 0.000000 0.535090 -0.844795
vn 0.014880 0.466655 -0.884314
vn 0.948683 -0.316228 0.000000
vn -0.995087 0.097451 0.017467
vn -0.999928 -0.011993 -0.000001
vn 0.554700 -0.665640 -0.499230
vn 0.544953 -0.653944 -0.524769
vn -0.473916 -0.655486 -0.587999
vn -0.518264 -0.716825 -0.466438
vn 0.554700 -0.665640 0.499231
vn 0.544953 -0.653944 0.524770
vn -0.590540 -0.737330 0.328035
vn -0.493093 -0.615660 0.614673
vn 0.000000 -0.363799 -0.931477
vn -0.010421 -0.307758 -0.951408
vn -0.010422 -0.307755 0.951408
vn -0.000000 -0.363797 0.931478
vn -0.033843 -0.999427 -0.000632
vn -0.029138 -0.999182 0.028058
vn -0.029150 -0.999575 0.000000
vn -0.029149 -0.999560 -0.005480
vn -0.033825 -0.998897 -0.032572
vn -0.032736 0.061989 -0.997540
vn 0.002238 0.051210 -0.998685
vn -0.032736 0.061989 0.997540
vn 0.002237 0.051210 0.998685
vn 0.992621 0.121259 0.000001
vn 0.992621 0.121260 0.000000
vn 0.043655 0.999047 -0.000000
vn 0.466975 -0.884270 0.000000
usemtl Trash_Lid_recyclebin.tga
s 1
f 20/1/1 18/2/2 19/3/1
f 20/1/1 17/4/2 18/2/2
f 20/1/1 15/5/3 16/6/3
f 20/1/1 19/3/1 15/5/3
f 18/2/2 13/7/4 14/8/5
f 18/2/2 17/4/2 13/7/4
f 14/8/5 12/9/6 11/10/6
f 14/8/5 13/7/4 12/9/6
f 7/11/7 8/12/8 9/13/9
f 7/11/7 9/13/9 10/14/9
f 3/15/10 4/16/10 8/12/8
f 3/15/10 8/12/8 7/11/7
f 1/17/11 2/18/11 6/19/12
f 1/17/11 6/19/12 5/20/12
f 1/17/11 4/16/10 3/15/10
f 1/17/11 3/15/10 2/18/11
usemtl RecycleBin_recyclebin.tga
s off
f 37/21/13 55/22/13 43/23/13
f 44/24/14 56/25/14 40/26/14
f 41/27/15 53/28/15 38/29/15
f 39/30/16 54/31/16 42/32/16
f 40/26/17 56/25/17 37/33/17
f 37/33/18 56/25/18 55/34/18
f 38/29/19 54/31/19 39/30/19
f 38/29/20 53/28/20 54/31/20
f 43/35/21 50/36/21 52/37/21
f 43/35/21 41/38/21 50/36/21
f 44/39/22 49/40/22 42/41/22
f 44/39/23 51/42/23 49/40/23
f 37/43/24 43/44/24 47/45/24
f 47/45/25 43/44/25 52/46/25
f 44/39/26 48/47/26 51/42/26
f 44/39/27 40/48/27 48/47/27
f 38/49/28 45/50/28 41/38/28
f 41/38/29 45/50/29 50/36/29
f 42/41/30 46/51/30 39/52/30
f 42/41/31 49/40/31 46/51/31
f 37/53/32 48/54/32 40/55/32
f 37/53/33 47/56/33 48/54/33
f 38/57/34 46/58/34 45/59/34
f 38/57/35 39/60/35 46/58/35
f 47/61/36 51/62/36 48/63/36
f 52/64/37 51/62/37 47/61/37
f 52/64/38 49/65/38 51/62/38
f 50/66/38 49/65/38 52/64/38
f 50/66/39 46/67/39 49/65/39
f 45/68/40 46/67/40 50/66/40
f 33/69/41 29/70/41 32/71/41
f 33/69/42 32/71/42 36/72/42
f 30/73/43 34/74/43 31/75/43
f 34/74/44 35/76/44 31/75/44
f 29/70/45 33/77/45 34/78/45
f 29/70/46 34/78/46 30/73/46
f 33/77/47 36/72/47 35/76/47
f 33/77/47 35/76/47 34/78/47
f 29/70/48 30/73/48 31/75/48
f 29/70/48 31/75/48 32/71/48
f 25/79/41 21/80/41 24/81/41
f 25/79/42 24/81/42 28/82/42
f 22/83/43 26/84/43 23/85/43
f 26/84/44 27/86/44 23/85/44
f 21/80/45 25/87/45 26/88/45
f 21/80/46 26/88/46 22/83/46
f 25/87/47 28/82/47 27/86/47
f 25/87/47 27/86/47 26/88/47
f 21/80/48 22/83/48 23/85/48
f 21/80/48 23/85/48 24/81/48
