# Blender3D v249 OBJ File: Master.blend
# www.blender3d.org
mtllib shrub_L.mtl
v 0.981723 1.300613 -0.996650
v 0.981741 0.128823 -0.996650
v -0.951440 2.493921 -0.996649
v 0.914195 2.474248 -0.996650
v -0.000532 2.676238 -0.996650
v 1.005704 0.518698 -0.996650
v 0.940865 2.082990 -0.996650
v -0.997341 2.104805 -0.996649
v -0.730994 -0.017630 -0.996649
v 0.709441 -0.016772 -0.996650
v -0.685834 2.633803 -0.996650
v 0.675726 2.622595 -0.996650
v 0.981724 1.300613 0.003350
v 0.940865 2.082990 0.003350
v 1.005705 0.518698 0.003350
v -0.952079 0.128749 -0.921651
v -0.731026 -0.017630 -0.925150
v 0.981742 0.128823 0.003350
v 0.709441 -0.016772 0.003350
v -0.685605 2.633803 -0.925150
v 0.914195 2.474248 0.003350
v 0.675726 2.622595 0.003350
v -0.001830 2.676238 -0.863185
v -1.028859 1.314668 1.017211
v -1.028859 0.128676 0.992104
v -1.028859 0.128823 -0.988058
v -1.028859 2.493921 0.945123
v -1.028859 2.474248 -0.920512
v -1.028859 2.676238 -0.005786
v -1.028859 0.522847 1.019099
v -1.028859 2.082990 -0.947182
v -1.028859 2.104805 0.991024
v -1.028859 -0.017629 0.724677
v -1.028859 -0.016772 -0.715758
v -1.028859 2.633804 0.679517
v -1.028859 2.622595 -0.682043
v -0.005106 1.314668 1.017211
v -0.005106 2.104805 0.991024
v -0.005106 0.522847 1.019099
v -0.005106 0.128676 0.992104
v -0.005106 -0.017629 0.724677
v -0.954377 -0.016772 -0.716894
v -0.005106 2.493921 0.945123
v -0.005106 2.633804 0.679517
v -0.952362 2.484085 -0.922896
v -0.954377 2.622595 -0.681217
v -0.854377 2.676238 -0.005669
v 0.830552 1.300613 0.405821
v 0.799272 2.082990 0.379533
v 0.848910 0.518698 0.421251
v 0.830565 0.128823 0.405833
v 0.622108 -0.016772 0.230639
v 0.778855 2.474248 0.362374
v 0.596297 2.622595 0.208947
v 0.457062 1.314668 0.798134
v 0.442947 2.104805 0.776076
v 0.458079 0.522847 0.799724
v 0.443529 0.128676 0.776986
v 0.299386 -0.017629 0.551730
v 0.418207 2.493921 0.737414
v 0.275045 2.633804 0.513692
vt 0.348548 0.697084
vt 0.302735 0.894749
vt 0.174853 0.707519
vt -1.120288 0.916433
vt -1.122299 0.710815
vt -0.951889 0.709324
vt -0.477136 1.963743
vt -1.076023 1.442858
vt -0.483085 0.785906
vt -0.009343 1.439136
vt -0.334898 1.902445
vt -0.123935 1.654928
vt -1.173116 0.711595
vt -1.120919 0.651906
vt 1.446459 2.175265
vt 1.441334 1.876828
vt 1.388115 2.161993
vt 1.404809 1.860845
vt -0.231983 2.042620
vt 0.027798 1.764737
vt 0.486947 0.332484
vt 0.498042 0.634013
vt 0.187079 0.356947
vt 0.212644 0.656922
vt 0.469561 -0.270261
vt 0.171289 -0.251399
vt 0.161923 -0.268432
vt -0.133367 -0.261672
vt -0.134512 -0.871156
vt 0.171289 -0.870574
vt -0.143031 -1.174146
vt 0.159443 -1.170346
vt 2.175265 -0.335861
vt 2.171441 0.076930
vt 1.964720 0.034780
vt 1.962861 -0.315681
vt 0.171289 1.438702
vt -0.462270 0.645929
vt -0.467712 0.345757
vt -0.139141 0.346876
vt -0.151377 0.647054
vt 2.069758 0.439413
vt 1.907895 0.295331
vt -0.473894 -0.872271
vt -0.472017 -1.175265
vt -0.472023 -0.262787
vt -0.480369 2.147073
vt 0.756589 0.329432
vt 0.755400 0.631096
vt 1.898787 -0.486236
vt 2.060264 -0.635971
vt 0.755534 -1.175261
vt 0.758177 -0.875752
vt 0.458670 -0.872373
vt 0.467066 -1.172002
vt 0.758021 -0.273519
vt -0.952506 0.651985
vt -0.483271 0.651582
vt -0.009964 0.651008
vt 0.170668 0.650575
vt -1.163641 0.650575
vt -1.169083 0.350403
vt 0.171289 0.657121
vt 0.383673 0.656922
vt 1.615684 1.001843
vt 1.453821 0.857761
vt -1.175265 -0.867625
vt -1.173388 -1.170619
vt -1.173394 -0.258141
vt -1.169200 1.964474
vt -1.168389 1.443955
vt -1.169770 0.916309
vt -1.172432 2.147804
vt 1.444872 0.329427
vt 1.443683 0.631092
vt 1.446459 -1.025530
vt 1.607936 -1.175265
vt 1.443817 -1.175265
vt 1.446459 -0.875757
vt 0.343757 0.907272
vt 1.446304 -0.273524
vn -0.185003 -0.885647 -0.425825
vn -0.535203 -0.801874 -0.265511
vn -0.251961 -0.787469 -0.562487
vn -0.247963 0.966338 -0.068087
vn -0.250618 0.931303 -0.264290
vn -0.110935 0.963591 -0.243141
vn 0.293252 0.954192 0.059206
vn 0.014863 0.999878 -0.004334
vn -0.012391 0.999908 -0.003265
vn 0.068606 0.978515 0.194281
vn 0.226203 0.965880 0.126072
vn 0.241646 0.936094 0.255470
vn -0.529618 0.837184 -0.136265
vn -0.580798 0.625629 -0.520798
vn -0.784814 0.060152 -0.616779
vn -0.849879 0.035829 -0.525681
vn 0.674215 0.587207 0.447829
vn 0.448744 0.644185 0.619343
vn 0.851161 0.055818 0.521867
vn 0.595599 0.079592 0.799280
vn 0.843104 0.036073 0.536485
vn 0.590808 0.025697 0.806391
vn 0.555162 -0.023072 0.831385
vn 0.852870 -0.022736 0.521561
vn 0.499008 -0.534562 0.682058
vn 0.610187 -0.684225 0.399274
vn 0.303598 -0.878689 0.368358
vn 0.399121 -0.880245 0.256600
vn 0.208380 0.567797 0.796350
vn 0.220679 0.074557 0.972472
vn 0.205817 -0.379864 0.901822
vn 0.116184 -0.877834 0.464614
vn 0.175237 -0.025239 0.984191
vn 0.219459 0.017609 0.975433
vn 0.916440 0.363201 0.167791
vn 0.982269 0.056551 0.178625
vn 0.468520 -0.879025 0.088076
vn 0.873775 -0.442671 0.201270
vn 0.989441 -0.024537 0.142674
vn 0.983215 0.037233 0.178503
vn -0.040437 0.925626 -0.376263
vn 0.000275 0.999451 -0.032197
vn 0.000000 0.962859 0.269875
vn 0.000000 0.415143 0.909726
vn 0.000000 0.061159 0.998108
vn 0.188055 -0.833735 -0.519120
vn 0.376934 -0.816797 -0.436720
vn 0.000000 -0.681478 0.731803
vn 0.000000 -0.877285 0.479934
vn 0.000000 -0.044771 0.998993
vn 0.000000 0.012604 0.999908
vn 0.234626 0.972076 0.000244
vn -0.014893 0.999878 0.000092
vn -0.269875 0.962859 0.000855
vn 0.758232 0.651967 0.000000
vn 0.998016 0.062716 0.000000
vn 0.471511 -0.881832 0.000000
vn 0.841578 -0.540117 0.000000
vn 1.000000 0.000000 0.000000
vn -0.552110 -0.833766 -0.000244
vn 0.998962 0.044984 0.000000
usemtl Bush_leaves.png
s 1
f 16/1/1 17/2/2 42/3/3
f 20/4/4 45/5/5 46/6/6
f 22/7/7 23/8/8 47/9/9
f 22/7/7 47/9/9 44/10/10
f 54/11/11 22/7/7 44/10/10
f 61/12/12 54/11/11 44/10/10
f 3/13/13 28/14/14 45/5/5
f 3/15/13 8/16/15 28/17/14
f 28/17/14 8/16/15 31/18/16
f 53/19/17 54/11/11 61/12/12
f 53/19/17 61/12/12 60/20/18
f 49/21/19 53/22/17 56/23/20
f 53/22/17 60/24/18 56/23/20
f 48/25/21 49/21/19 55/26/22
f 49/21/19 56/23/20 55/26/22
f 48/27/21 55/28/22 57/29/23
f 48/27/21 57/29/23 50/30/24
f 50/30/24 57/29/23 58/31/25
f 50/30/24 58/31/25 51/32/26
f 51/33/26 58/34/25 59/35/27
f 51/33/26 59/35/27 52/36/28
f 44/10/10 43/37/29 60/20/18
f 44/10/10 60/20/18 61/12/12
f 43/38/29 38/39/30 56/40/20
f 43/38/29 56/40/20 60/41/18
f 40/42/31 41/43/32 58/34/25
f 41/43/32 59/35/27 58/34/25
f 39/44/33 40/45/31 57/29/23
f 40/45/31 58/31/25 57/29/23
f 37/46/34 39/44/33 57/29/23
f 37/46/34 57/29/23 55/28/22
f 38/39/30 37/46/34 55/28/22
f 38/39/30 55/28/22 56/40/20
f 21/47/35 22/7/7 53/19/17
f 22/7/7 54/11/11 53/19/17
f 14/48/36 21/49/35 49/21/19
f 21/49/35 53/22/17 49/21/19
f 19/50/37 18/51/38 51/33/26
f 19/50/37 51/33/26 52/36/28
f 18/52/38 15/53/39 50/54/24
f 18/52/38 50/54/24 51/55/26
f 15/53/39 13/56/40 50/54/24
f 13/56/40 48/25/21 50/54/24
f 13/56/40 14/48/36 48/25/21
f 14/48/36 49/21/19 48/25/21
f 20/4/4 46/6/6 47/9/9
f 20/4/4 47/9/9 23/8/8
f 36/57/41 29/58/42 46/6/6
f 29/58/42 47/9/9 46/6/6
f 29/58/42 35/59/43 47/9/9
f 35/59/43 44/10/10 47/9/9
f 28/14/14 36/57/41 45/5/5
f 36/57/41 46/6/6 45/5/5
f 35/59/43 27/60/44 43/37/29
f 35/59/43 43/37/29 44/10/10
f 27/61/44 32/62/45 38/39/30
f 27/61/44 38/39/30 43/38/29
f 34/63/46 26/64/47 16/1/1
f 34/63/46 16/1/1 42/3/3
f 25/65/48 33/66/49 41/43/32
f 25/65/48 41/43/32 40/42/31
f 30/67/50 25/68/48 40/45/31
f 30/67/50 40/45/31 39/44/33
f 24/69/51 30/67/50 39/44/33
f 24/69/51 39/44/33 37/46/34
f 32/62/45 24/69/51 37/46/34
f 32/62/45 37/46/34 38/39/30
f 12/70/52 5/71/53 23/8/8
f 12/70/52 23/8/8 22/7/7
f 5/71/53 11/72/54 20/4/4
f 5/71/53 20/4/4 23/8/8
f 4/73/55 12/70/52 22/7/7
f 4/73/55 22/7/7 21/47/35
f 7/74/56 4/75/55 21/49/35
f 7/74/56 21/49/35 14/48/36
f 11/72/54 3/13/13 20/4/4
f 3/13/13 45/5/5 20/4/4
f 10/76/57 2/77/58 19/50/37
f 2/77/58 18/51/38 19/50/37
f 2/78/58 6/79/59 15/53/39
f 2/78/58 15/53/39 18/52/38
f 9/80/60 17/2/2 16/1/1
f 6/79/59 1/81/61 13/56/40
f 6/79/59 13/56/40 15/53/39
f 1/81/61 7/74/56 14/48/36
f 1/81/61 14/48/36 13/56/40
