# Blender3D v249 OBJ File: Master.blend
# www.blender3d.org
mtllib shrub_E.mtl
v 0.996056 1.300613 1.013153
v -1.009196 1.314668 1.013153
v -0.984088 0.128676 1.013153
v 0.996074 0.128823 1.013153
v -0.937108 2.493921 1.013153
v 0.928527 2.474248 1.013153
v 0.013801 2.676238 1.013153
v 0.931061 2.399480 -0.514941
v 0.011689 2.604349 -0.533322
v -0.944322 2.420070 -0.514942
v 0.994226 0.121349 -0.613840
v -0.982490 0.121144 -0.613840
v -1.012339 1.272717 -0.548471
v 0.996504 1.258188 -0.548471
v -0.009205 1.261216 -0.897334
v 0.006251 0.144199 -0.963046
v -0.009589 2.378349 -0.863460
v 1.020037 0.518698 1.013153
v -1.011084 0.522847 1.013153
v 0.955197 2.082990 1.013153
v -0.983009 2.104805 1.013153
v 0.994179 1.271080 -0.041415
v -1.008052 1.285156 -0.041415
v -0.980446 0.111507 -0.093554
v -0.716661 -0.017629 1.013153
v 0.991861 0.111785 -0.093554
v 0.723773 -0.016772 1.013153
v -0.937959 2.453956 -0.010159
v 0.013696 2.638034 -0.020263
v 0.928827 2.434175 -0.010158
v -0.671502 2.633804 1.013153
v 0.690058 2.622595 1.013153
v 0.957332 2.015074 -0.514133
v 0.697499 2.378194 -0.776330
v 0.691307 2.549779 -0.528727
v 0.004890 2.532135 -0.790116
v -0.677089 2.561631 -0.528727
v -0.715198 2.394217 -0.776331
v -0.989556 2.037740 -0.514134
v -0.715509 -0.025046 -0.623934
v 0.003720 -0.007382 -0.885839
v 0.722374 -0.024147 -0.623934
v 0.750059 0.138494 -0.875745
v 1.018746 0.502415 -0.590768
v -1.010656 0.506639 -0.590768
v -0.737749 0.138428 -0.875745
v -0.765058 1.267890 -0.810118
v 0.747291 1.256660 -0.810118
v 0.004010 0.520682 -0.939889
v -0.018653 2.001778 -0.862738
v 1.016395 0.498483 -0.075131
v -1.008055 0.502539 -0.075131
v 0.955045 2.044627 -0.012920
v -0.983624 2.066562 -0.012920
v -0.714012 -0.034702 -0.101637
v 0.720556 -0.033747 -0.101637
v -0.671903 2.595170 -0.017737
v 0.690164 2.583914 -0.017737
v 0.515736 2.495362 -0.718774
v -0.511930 2.505463 -0.718775
v 0.544613 0.026169 -0.815321
v -0.536059 0.025763 -0.815321
v -0.751125 2.016695 -0.775587
v 0.715090 1.999177 -0.775587
v -0.759698 0.518302 -0.852609
v 0.767736 0.514985 -0.852608
vt 1.136568 1.784114
vt 1.116473 1.850000
vt 0.760266 1.818137
vt 0.643013 1.768135
vt 1.614883 1.777121
vt 1.467296 1.823876
vt 1.153351 1.590650
vt 1.650181 1.583179
vt 0.641517 1.573396
vt 1.196440 0.654777
vt 1.196344 0.563200
vt 1.561350 0.567948
vt 1.701774 0.636664
vt 0.677754 0.635898
vt 0.817541 0.567575
vt 1.185551 0.843949
vt 0.653159 0.825066
vt 1.704356 0.827591
vt 1.170433 1.216584
vt 1.683582 1.204883
vt 0.642989 1.198303
vt 1.545369 -0.151479
vt 1.726945 -0.148216
vt 1.701443 0.255568
vt 1.519975 0.260213
vt 1.576290 -0.562305
vt 1.757971 -0.551357
vt 1.193766 -0.145280
vt 1.218773 -0.565259
vt 1.172388 0.275473
vt -0.625624 1.183142
vt -0.806912 1.182425
vt -0.653321 0.766831
vt -0.834777 0.775109
vt -0.603431 1.599097
vt -0.784555 1.589485
vt -0.274072 1.190783
vt -0.255964 1.615646
vt -0.295784 0.765484
vt 1.850000 0.581270
vt 1.671158 0.507867
vt -0.668485 0.557597
vt -0.850000 0.568870
vt -0.307714 0.553243
vt -0.675044 0.480673
vt -0.312878 0.476308
vt 0.489474 0.580312
vt 0.460045 0.771838
vt 0.681476 0.507555
vt 1.593113 -0.768919
vt 1.232385 -0.774939
vt 1.238467 -0.850000
vt 1.600590 -0.843948
vt -0.604783 1.807267
vt -0.785856 1.794954
vt 0.273935 0.476308
vt 0.276809 0.325997
vt 0.456329 0.352671
vt 0.411280 0.238311
vt -0.076841 0.472376
vt -0.078244 0.322726
vt -0.254851 1.826577
vt 0.278865 -0.049026
vt 0.460045 -0.042989
vt 0.279396 -0.415342
vt 0.413283 -0.318388
vt -0.077631 -0.050577
vt -0.075696 -0.415205
vt 0.277697 -0.539528
vt 0.459188 -0.412524
vt 1.519734 0.469426
vt 1.701164 0.461726
vt 1.169661 0.487473
vt -0.073132 -0.538831
vt -0.794223 -0.050428
vt -0.793110 0.322694
vt -0.790565 -0.414965
vt -0.782829 -0.538552
vt 0.460045 0.507555
vt 0.460860 0.294615
vt -0.786531 0.472036
vt 0.454596 1.850000
vt 0.455402 1.638135
vt 0.464990 -0.767575
vt 0.465469 -0.842669
vt 0.464146 -0.556130
vt 0.459604 0.564375
vt 0.460045 0.487410
vt 0.458753 0.778297
vt 0.457070 1.208559
vt 0.462498 -0.131007
vn 0.004151 0.345042 -0.938566
vn 0.008362 0.765587 -0.643239
vn 0.164769 0.775872 -0.608936
vn 0.425245 0.346507 -0.836085
vn -0.343181 0.425581 -0.837275
vn -0.144505 0.791284 -0.594104
vn -0.016297 0.021516 -0.999634
vn -0.560411 0.054628 -0.826380
vn 0.449812 0.047395 -0.891842
vn 0.000000 -0.344157 -0.938902
vn 0.000000 -0.453841 -0.891049
vn -0.183966 -0.634968 -0.750298
vn -0.344615 -0.395642 -0.851253
vn 0.344157 -0.397534 -0.850581
vn 0.183050 -0.639088 -0.747002
vn 0.016541 0.058260 -0.998138
vn 0.510208 0.037782 -0.859188
vn -0.446211 0.033021 -0.894284
vn 0.000946 0.052553 -0.998596
vn -0.446547 0.046724 -0.893521
vn 0.444807 0.062471 -0.893429
vn 0.928556 0.054018 -0.367199
vn 0.930387 0.057405 -0.361950
vn 0.928892 0.002838 -0.370312
vn 0.999176 0.040132 -0.000153
vn 0.999847 -0.016907 0.000610
vn 0.998230 0.059297 -0.000977
vn -0.930967 0.028748 -0.363872
vn -0.928861 -0.015656 -0.370037
vn -0.956236 0.067568 -0.284585
vn -0.999847 0.015625 0.003388
vn -0.997192 0.074557 0.002197
vn -0.999359 -0.035340 0.001892
vn -0.768548 -0.520615 -0.371807
vn -0.419782 -0.843562 -0.334910
vn -0.841700 -0.539903 0.002808
vn -0.480941 -0.876705 -0.005615
vn 0.767907 -0.521653 -0.371685
vn 0.413526 -0.848476 -0.330210
vn 0.841182 -0.540696 0.002716
vn 0.472549 -0.881252 -0.005493
vn -0.846278 0.396344 -0.355907
vn -0.311472 0.915891 -0.253151
vn -0.825495 0.563738 -0.026948
vn -0.271371 0.961211 -0.048982
vn -0.001007 0.979156 -0.202979
vn 0.317545 0.917203 -0.240486
vn 0.018921 0.998566 -0.049471
vn 0.360179 0.931730 -0.045991
vn 0.869381 0.406354 -0.281075
vn 0.858455 0.512101 -0.027894
vn 0.008637 0.999268 -0.036927
vn -0.200598 0.978973 -0.036439
vn 0.234809 0.971343 -0.036225
vn 0.759148 0.650410 -0.024751
vn 0.998016 0.062441 -0.002350
vn -0.715018 0.698599 -0.026246
vn -0.996002 0.089175 -0.002716
vn 0.925932 -0.377606 0.002533
vn 0.471908 -0.881527 0.011902
vn 0.999969 -0.000580 -0.002899
vn -0.925077 -0.379681 0.003113
vn -0.480331 -0.876980 0.012146
vn -0.999756 -0.021943 -0.001801
vn -0.999725 0.022248 -0.001221
vn 0.998993 0.044465 -0.002625
usemtl Bush_leaves.png
s 1
f 17/1/1 36/2/2 59/3/3
f 17/1/1 59/3/3 34/4/4
f 17/1/1 38/5/5 60/6/6
f 17/1/1 60/6/6 36/2/2
f 17/1/1 50/7/7 38/5/5
f 50/7/7 63/8/8 38/5/5
f 17/1/1 34/4/4 50/7/7
f 34/4/4 64/9/9 50/7/7
f 16/10/10 41/11/11 62/12/12
f 16/10/10 62/12/12 46/13/13
f 16/10/10 43/14/14 61/15/15
f 16/10/10 61/15/15 41/11/11
f 16/10/10 49/16/16 43/14/14
f 49/16/16 66/17/17 43/14/14
f 16/10/10 46/13/13 49/16/16
f 46/13/13 65/18/18 49/16/16
f 15/19/19 47/20/20 50/7/7
f 47/20/20 63/8/8 50/7/7
f 15/19/19 49/16/16 65/18/18
f 15/19/19 65/18/18 47/20/20
f 15/19/19 48/21/21 49/16/16
f 48/21/21 66/17/17 49/16/16
f 15/19/19 50/7/7 64/9/9
f 15/19/19 64/9/9 48/21/21
f 14/22/22 48/23/21 64/24/9
f 14/22/22 64/24/9 33/25/23
f 14/22/22 44/26/24 48/23/21
f 44/26/24 66/27/17 48/23/21
f 14/22/22 22/28/25 51/29/26
f 14/22/22 51/29/26 44/26/24
f 14/22/22 33/25/23 22/28/25
f 33/25/23 53/30/27 22/28/25
f 13/31/28 47/32/20 45/33/29
f 47/32/20 65/34/18 45/33/29
f 13/31/28 39/35/30 63/36/8
f 13/31/28 63/36/8 47/32/20
f 13/31/28 23/37/31 39/35/30
f 23/37/31 54/38/32 39/35/30
f 13/31/28 45/33/29 52/39/33
f 13/31/28 52/39/33 23/37/31
f 12/40/34 46/13/13 40/41/35
f 46/13/13 62/12/12 40/41/35
f 12/42/34 45/33/29 65/34/18
f 12/42/34 65/34/18 46/43/13
f 12/42/34 24/44/36 45/33/29
f 24/44/36 52/39/33 45/33/29
f 12/42/34 40/45/35 55/46/37
f 12/42/34 55/46/37 24/44/36
f 11/47/38 43/14/14 66/17/17
f 11/47/38 66/17/17 44/48/24
f 11/47/38 42/49/39 43/14/14
f 42/49/39 61/15/15 43/14/14
f 11/50/38 26/51/40 56/52/41
f 11/50/38 56/52/41 42/53/39
f 11/50/38 44/26/24 26/51/40
f 44/26/24 51/29/26 26/51/40
f 10/54/42 38/55/5 63/36/8
f 10/54/42 63/36/8 39/35/30
f 10/56/42 37/57/43 38/58/5
f 37/57/43 60/59/6 38/58/5
f 10/56/42 28/60/44 37/57/43
f 28/60/44 57/61/45 37/57/43
f 10/54/42 39/35/30 54/38/32
f 10/54/42 54/38/32 28/62/44
f 9/63/46 36/64/2 60/59/6
f 9/63/46 60/59/6 37/57/43
f 9/63/46 35/65/47 59/66/3
f 9/63/46 59/66/3 36/64/2
f 9/63/46 29/67/48 35/65/47
f 29/67/48 58/68/49 35/65/47
f 9/63/46 37/57/43 57/61/45
f 9/63/46 57/61/45 29/67/48
f 8/69/50 34/70/4 35/65/47
f 34/70/4 59/66/3 35/65/47
f 8/71/50 33/25/23 34/72/4
f 33/25/23 64/24/9 34/72/4
f 8/71/50 30/73/51 53/30/27
f 8/71/50 53/30/27 33/25/23
f 8/69/50 35/65/47 30/74/51
f 35/65/47 58/68/49 30/74/51
f 7/75/52 29/67/48 31/76/53
f 29/67/48 57/61/45 31/76/53
f 7/75/52 32/77/54 29/67/48
f 32/77/54 58/68/49 29/67/48
f 6/78/55 30/74/51 58/68/49
f 6/78/55 58/68/49 32/77/54
f 6/79/55 20/80/56 30/73/51
f 20/80/56 53/30/27 30/73/51
f 5/81/57 31/76/53 57/61/45
f 5/81/57 57/61/45 28/60/44
f 5/82/57 28/62/44 21/83/58
f 28/62/44 54/38/32 21/83/58
f 4/84/59 27/85/60 26/51/40
f 27/85/60 56/52/41 26/51/40
f 4/84/59 26/51/40 51/29/26
f 4/84/59 51/29/26 18/86/61
f 3/87/62 24/44/36 25/88/63
f 24/44/36 55/46/37 25/88/63
f 3/87/62 19/89/64 52/39/33
f 3/87/62 52/39/33 24/44/36
f 2/90/65 23/37/31 19/89/64
f 23/37/31 52/39/33 19/89/64
f 2/90/65 21/83/58 54/38/32
f 2/90/65 54/38/32 23/37/31
f 1/91/66 22/28/25 53/30/27
f 1/91/66 53/30/27 20/80/56
f 1/91/66 18/86/61 22/28/25
f 18/86/61 51/29/26 22/28/25
