# Blender3D v249 OBJ File: Master.blend
# www.blender3d.org
mtllib shrub_I.mtl
v 0.996056 1.300613 -0.986847
v -1.009196 1.314668 -0.986847
v -0.984088 0.128676 -0.986847
v 0.996074 0.128823 -0.986847
v -0.937108 2.493921 -0.986847
v 0.928527 2.474248 -0.986847
v 0.013801 2.676238 -0.986847
v 1.020037 0.518698 -0.986847
v -1.011084 0.522847 -0.986847
v 0.955197 2.082990 -0.986847
v -0.983009 2.104805 -0.986847
v -0.716661 -0.017629 -0.986847
v 0.723773 -0.016772 -0.986847
v -0.671502 2.633804 -0.986847
v 0.690058 2.622595 -0.986847
v 0.996056 1.300614 1.013153
v 0.955197 2.082990 1.013153
v 1.020037 0.518698 1.013153
v -1.009196 1.314669 1.013153
v -0.983009 2.104805 1.013153
v -1.011084 0.522847 1.013153
v -0.984088 0.128676 1.013153
v -0.716661 -0.017629 1.013153
v 0.996074 0.128824 1.013153
v 0.723773 -0.016772 1.013153
v -0.937108 2.493921 1.013153
v -0.671502 2.633804 1.013152
v 0.928527 2.474248 1.013153
v 0.690058 2.622595 1.013153
v 0.013801 2.676238 1.013152
vt -0.470848 -0.693745
vt -0.072391 -0.692653
vt -0.076040 0.369741
vt -0.474498 0.368650
vt 0.335935 -0.691535
vt 0.332286 0.370860
vt -0.605288 -0.694114
vt -0.608937 0.368281
vt 0.496162 1.485956
vt 0.495447 1.694114
vt -0.694114 1.690854
vt -0.693399 1.482697
vt 0.499980 -0.691085
vt 0.496330 0.371310
vt 0.499979 1.690854
vt 0.500691 1.483713
vt 1.690251 1.486973
vt 1.689540 1.694114
vt 0.499980 0.374569
vt 0.499728 0.447713
vt -0.689832 0.444454
vt -0.689581 0.371309
vt 0.499018 0.654361
vt -0.690542 0.651102
vt 0.504296 0.434194
vt 0.504553 0.359313
vt 1.694114 0.362573
vt 1.693857 0.437453
vt 0.503578 0.643251
vt 1.693138 0.646510
vt 0.502133 1.063801
vt 1.691694 1.067061
vt 0.497591 1.069907
vt -0.691970 1.066648
vn 0.234687 0.972045 0.000000
vn -0.014863 0.999878 0.000000
vn 0.032167 0.999481 0.000000
vn 0.388256 0.921537 0.000000
vn -0.337931 0.941160 0.000000
vn -0.200476 0.979675 0.000000
vn 0.758232 0.651967 0.000000
vn 0.931516 0.363628 0.000000
vn 0.998016 0.062716 0.000000
vn 0.998321 0.057436 0.000000
vn -0.909726 0.415143 0.000000
vn -0.714164 0.699942 0.000000
vn -0.998108 0.061159 0.000000
vn -0.996002 0.089206 0.000000
vn 0.471511 -0.881832 0.000000
vn 0.926176 -0.377026 0.000000
vn 0.728538 -0.684957 0.000000
vn 1.000000 0.000000 0.000000
vn 0.999512 -0.030702 0.000000
vn -0.731803 -0.681478 0.000000
vn -0.479934 -0.877285 0.000000
vn -0.925352 -0.379040 0.000000
vn -0.998993 -0.044771 0.000000
vn -0.999756 -0.021180 0.000000
vn -0.999908 0.012604 0.000000
vn -0.999725 0.022858 0.000000
vn 0.998962 0.044984 0.000000
vn 0.999268 0.037812 0.000000
usemtl Bush_leaves.png
s 1
f 15/1/1 7/2/2 30/3/3
f 15/1/1 30/3/3 29/4/4
f 7/2/2 14/5/5 27/6/6
f 7/2/2 27/6/6 30/3/3
f 6/7/7 15/1/1 29/4/4
f 6/7/7 29/4/4 28/8/8
f 10/9/9 6/10/7 28/11/8
f 10/9/9 28/11/8 17/12/10
f 14/5/5 5/13/11 26/14/12
f 14/5/5 26/14/12 27/6/6
f 5/15/11 11/16/13 20/17/14
f 5/15/11 20/17/14 26/18/12
f 13/19/15 4/20/16 24/21/17
f 13/19/15 24/21/17 25/22/15
f 4/20/16 8/23/18 18/24/19
f 4/20/16 18/24/19 24/21/17
f 3/25/20 12/26/21 23/27/21
f 3/25/20 23/27/21 22/28/22
f 9/29/23 3/25/20 22/28/22
f 9/29/23 22/28/22 21/30/24
f 2/31/25 9/29/23 21/30/24
f 2/31/25 21/30/24 19/32/26
f 11/16/13 2/31/25 19/32/26
f 11/16/13 19/32/26 20/17/14
f 8/23/18 1/33/27 16/34/28
f 8/23/18 16/34/28 18/24/19
f 1/33/27 10/9/9 17/12/10
f 1/33/27 17/12/10 16/34/28
