# Blender3D v249 OBJ File: Master.blend
# www.blender3d.org
mtllib street.mtl
v -1.000000 -0.299231 1.000000
v -41.000000 0.027648 -9.000000
v -41.000000 0.027649 1.000000
v -43.000000 0.027648 1.000000
v -43.000000 0.027648 -9.000000
v -11.000000 -0.099231 1.000000
v -21.000000 0.000769 1.000000
v -31.000000 -0.099231 1.000000
v -41.000000 -0.299232 -9.000000
v -41.000000 -0.299231 1.000000
v -1.000000 -0.299231 -9.000000
v -11.000000 -0.099231 -9.000000
v -21.000000 0.000769 -9.000000
v -31.000000 -0.099231 -9.000000
v -41.000000 -0.299231 -9.000000
vt 0.997347 0.496159
vt 0.503056 0.000990
vt 0.997928 0.001148
vt 0.503361 0.496040
vt 0.981772 0.169047
vt 0.523152 0.106376
vt 0.981126 0.106376
vt 0.523495 0.175215
vt 0.012533 0.012532
vt 0.431218 0.012532
vt 0.431218 0.931217
vt 0.012533 0.931217
vt 0.500000 0.500000
vt 0.503125 0.968750
vt -0.496875 0.968750
vt -0.500000 0.500000
vt -0.015625 0.968750
vt -0.015625 0.500000
vt 0.984375 0.500000
vt 0.984375 0.968750
vt 0.004688 0.932813
vt 0.004688 0.520312
vt 0.995313 0.520312
vt 0.995313 0.932813
vn -0.000000 1.000000 -0.000000
vn 1.000000 0.000000 0.000000
vn -0.019996 0.999800 -0.000000
vn -0.009999 0.999950 -0.000000
vn 0.009999 0.999950 -0.000000
vn 0.019996 0.999800 -0.000000
usemtl Sidewalk_road.tga
s off
f 5/1/1 3/2/1 2/3/1
f 5/1/1 4/4/1 3/2/1
f 2/5/2 10/6/2 9/7/2
f 2/5/2 3/8/2 10/6/2
f 10/9/3 8/10/3 14/11/3
f 10/9/3 14/11/3 15/12/3
f 8/13/4 7/14/4 13/15/4
f 8/13/4 13/15/4 14/16/4
f 7/17/5 6/18/5 12/19/5
f 7/17/5 12/19/5 13/20/5
f 6/21/6 1/22/6 11/23/6
f 6/21/6 11/23/6 12/24/6
