# Blender3D v249 OBJ File: Master.blend
# www.blender3d.org
mtllib streetcorner.mtl
v -1.000000 -0.299231 9.000000
v -41.000000 0.027649 9.000000
v -43.000000 0.027649 9.000000
v -11.000000 -0.099231 9.000000
v -21.000000 0.000769 9.000000
v -31.000000 -0.099231 9.000000
v -41.000000 -0.299231 9.000000
v -11.000000 -0.099231 -1.000000
v -21.000000 0.000769 -1.000000
v -31.000000 -0.099231 -1.000000
v -40.999180 -0.299231 -1.000306
v 9.002460 -0.099232 -31.000919
v 9.002462 0.000768 -21.000916
v 9.002462 -0.099232 -11.000916
v 9.002462 -0.299231 -1.000916
v 9.002460 -0.299233 -41.000919
v -0.997538 -0.099232 -31.000916
v -0.997538 0.000768 -21.000914
v -0.997538 -0.099232 -11.000916
v 9.002460 0.027646 -43.000919
v 9.002460 0.027647 -41.000919
v -0.998769 -0.299231 -1.000458
v -31.000000 -0.099233 -51.000000
v -21.000000 0.000767 -51.000000
v -11.000000 -0.099233 -51.000000
v -41.000000 -0.299233 -51.000000
v -31.000000 -0.099233 -41.000000
v -21.000000 0.000767 -41.000000
v -11.000000 -0.099233 -41.000000
v -43.000000 0.027646 -51.000000
v -41.000000 0.027646 -51.000000
v -0.993818 -0.299233 -40.991516
v -0.993204 0.027647 -40.991745
v -0.988865 0.027646 -50.982571
v 1.011135 0.027646 -50.982571
v 1.006796 0.027646 -42.991745
v -0.993817 -0.299233 -50.991516
v -50.998768 -0.299231 -1.000458
v -40.998772 0.027647 -41.000458
v -50.997543 0.027647 -41.000919
v -50.997543 0.027646 -43.000919
v -42.998772 0.027646 -43.000458
v -50.997540 -0.099232 -11.000916
v -50.997540 0.000768 -21.000914
v -50.997540 -0.099232 -31.000916
v -40.998363 -0.299233 -41.000610
v -50.997543 -0.299233 -41.000919
v -40.997536 -0.099232 -11.000916
v -40.997536 0.000768 -21.000916
v -40.997540 -0.099232 -31.000919
v -11.000000 -0.099232 -11.000000
v -21.000000 0.000768 -11.000000
v -31.000000 -0.099232 -11.000000
v -31.000000 -0.099232 -31.000000
v -21.000000 0.000768 -31.000000
v -11.000000 -0.099232 -31.000000
v -50.992580 -0.279768 1.104237
v -42.994808 -0.299231 1.002699
v -40.997406 0.027648 -0.998651
v -50.994808 0.027648 -0.997300
v -50.994808 0.027649 1.002700
v -42.997406 0.027648 1.001349
v -21.000000 0.000768 -21.000000
v -11.071417 0.000768 -21.000914
v -30.997536 0.000768 -21.000916
vt 0.005449 0.511699
vt 1.119551 0.511699
vt 0.005449 1.000800
vt 1.119551 1.000800
vt 0.503361 0.496040
vt 0.503056 0.000990
vt 0.997928 0.001148
vt 0.997347 0.496159
vt 0.012500 0.512500
vt 1.093749 0.515625
vt 0.009375 1.000000
vt 1.090624 1.003125
vt 0.523495 0.175215
vt 0.523152 0.106376
vt 0.981126 0.106376
vt 0.981772 0.169047
vt 0.528487 0.525356
vt 0.528466 0.968337
vt 0.085594 0.968357
vt 0.085453 0.525260
vt 0.003125 0.525000
vt 1.090625 0.525000
vt 0.000000 0.996875
vt 1.087500 0.996875
vt 0.543779 0.529229
vt 0.543811 0.977137
vt 0.095758 0.977149
vt 0.095760 0.529130
vt 0.527996 0.966310
vt 0.528239 0.540184
vt 0.954470 0.966192
vt 0.954470 0.540381
vt 0.001427 0.507676
vt 1.089199 0.507676
vt 1.092324 0.998573
vt 0.004552 0.998573
vt 0.483902 0.119774
vt 0.483947 0.500009
vt 0.103554 0.119784
vt 0.103564 0.500113
vt 0.481680 0.503127
vt 0.481778 0.878992
vt 0.105863 0.878885
vt 0.105830 0.503127
vt 0.973883 0.971444
vt 0.530848 0.971403
vt 0.530998 0.528387
vt 0.973924 0.528387
vt 0.099772 0.884874
vt 0.099762 0.509328
vt 0.475244 0.884831
vt 0.475200 0.506603
vt 0.095834 0.530703
vt 0.543877 0.530725
vt 0.540679 0.975546
vt 0.095812 0.975483
vt 0.483918 0.880358
vt 0.103589 0.880348
vt 0.985459 0.975524
vt 0.985459 0.530766
vt 0.099756 0.133855
vt 0.475210 0.133831
vt 0.087942 0.528391
vt 0.087923 0.971425
vt 0.101848 0.966066
vt 0.102092 0.539940
vt 0.481680 0.127258
vt 0.105830 0.127258
vt 0.971490 0.525376
vt 0.971469 0.968357
vt 0.991742 0.977106
vt 0.991711 0.529197
vn 0.019984 0.999800 -0.000000
vn 0.000000 1.000000 -0.000000
vn -0.000019 0.999800 -0.019996
vn -0.000000 0.999800 -0.020015
vn 0.000941 0.000698 0.999999
vn 0.000918 0.000000 1.000000
vn -0.019996 0.999800 0.000003
vn -0.019999 0.999800 -0.000000
vn 0.999999 0.001249 -0.000123
vn 1.000000 0.000000 -0.000164
vn -0.019994 0.999600 0.019987
vn 0.999985 -0.005427 0.000082
vn 1.000000 0.000000 0.000259
vn -0.000000 0.999800 0.019995
vn 0.000160 0.313629 0.949546
vn 0.012705 0.004229 0.999910
vn 0.019994 0.999800 -0.000000
vn 0.000002 0.999800 0.019995
vn -0.000002 0.999800 -0.020015
vn -0.000000 0.999950 0.009999
vn -0.000000 0.999950 -0.010000
vn -0.000000 0.999800 -0.019997
vn 0.000001 0.999800 -0.019996
vn -0.000031 -0.000467 1.000000
vn -0.000046 0.000000 1.000000
vn -0.999998 0.001879 -0.000434
vn -0.999885 0.015148 -0.000000
vn -0.009999 0.999950 -0.000000
vn 0.009999 0.999950 -0.000000
vn 0.019994 0.999800 0.000002
vn 0.019996 0.999800 -0.000000
vn -0.000000 0.999800 0.019996
vn 0.000001 0.999800 0.019995
vn -0.019998 0.999800 -0.000000
vn -0.019996 0.999800 -0.000002
vn -0.000001 0.999950 0.009999
vn -0.019994 0.999600 -0.019991
vn 0.000001 0.999950 -0.010000
vn -0.000001 0.999950 -0.010000
vn 0.000001 0.999950 0.009999
vn -0.009999 0.999900 0.009996
vn 0.009999 0.999901 0.009927
vn 0.009999 0.999901 -0.009929
vn -0.009999 0.999900 -0.009997
vn 0.010000 0.999950 -0.000000
usemtl Sidewalk_road2.tga
s off
f 25/1/1 29/2/1 37/3/1
f 29/2/1 32/4/1 37/3/1
f 36/5/2 33/6/2 21/7/2
f 36/5/2 21/7/2 20/8/2
f 16/9/3 32/10/3 12/11/3
f 32/10/4 17/12/4 12/11/4
f 33/13/5 32/14/5 16/15/5
f 33/13/6 16/15/6 21/16/6
f 42/5/2 39/6/2 31/7/2
f 42/5/2 31/7/2 30/8/2
f 26/1/7 46/2/7 23/3/7
f 46/2/8 27/4/8 23/3/8
f 39/13/9 46/14/9 31/16/9
f 46/14/10 26/15/10 31/16/10
f 10/17/2 53/18/2 48/19/2
f 10/17/11 48/19/11 11/20/11
f 59/7/2 62/8/2 2/6/2
f 62/8/2 3/5/2 2/6/2
f 11/15/12 59/16/12 7/14/12
f 59/16/13 2/13/13 7/14/13
f 38/21/14 11/22/14 43/23/14
f 11/22/14 48/24/14 43/23/14
f 60/5/2 61/6/2 62/7/2
f 60/5/2 62/7/2 59/8/2
f 61/13/15 57/14/15 62/16/15
f 57/14/16 58/15/16 62/16/16
f 51/25/17 8/26/17 22/27/17
f 51/25/18 22/27/18 19/28/18
f 29/29/1 56/30/1 32/31/1
f 56/30/19 17/32/19 32/31/19
f 43/21/20 48/22/20 44/23/20
f 48/22/20 49/24/20 44/23/20
f 44/21/21 49/22/21 45/23/21
f 49/22/21 50/24/21 45/23/21
f 45/21/22 50/22/22 46/24/22
f 45/21/23 46/24/23 47/23/23
f 46/15/24 39/16/24 47/14/24
f 39/16/25 40/13/25 47/14/25
f 39/7/2 42/8/2 40/6/2
f 42/8/2 41/5/2 40/6/2
f 32/15/26 33/16/26 34/13/26
f 32/15/27 34/13/27 37/14/27
f 33/7/2 36/8/2 34/6/2
f 36/8/2 35/5/2 34/6/2
f 23/1/28 27/2/28 28/4/28
f 23/1/28 28/4/28 24/3/28
f 24/1/29 28/2/29 29/4/29
f 24/1/29 29/4/29 25/3/29
f 1/33/30 22/34/30 8/35/30
f 1/33/31 8/35/31 4/36/31
f 12/9/21 17/10/21 13/11/21
f 17/10/21 18/12/21 13/11/21
f 13/9/20 18/10/20 14/11/20
f 18/10/20 19/12/20 14/11/20
f 14/9/32 19/10/32 15/11/32
f 19/10/33 22/12/33 15/11/33
f 4/33/29 8/34/29 9/35/29
f 4/33/29 9/35/29 5/36/29
f 5/33/28 9/34/28 10/35/28
f 5/33/28 10/35/28 6/36/28
f 6/33/34 10/34/34 11/35/34
f 6/33/35 11/35/35 7/36/35
f 48/37/36 53/38/36 49/39/36
f 53/38/20 65/40/20 49/39/20
f 27/41/37 46/42/37 50/43/37
f 27/41/2 50/43/2 54/44/2
f 49/45/21 65/46/21 54/47/21
f 49/45/38 54/47/38 50/48/38
f 17/49/39 56/50/39 18/51/39
f 56/50/21 64/52/21 18/51/21
f 18/53/20 64/54/20 51/55/20
f 18/53/40 51/55/40 19/56/40
f 52/57/2 63/58/2 65/40/2
f 52/57/41 65/40/41 53/38/41
f 51/55/42 64/54/42 52/59/42
f 64/54/2 63/60/2 52/59/2
f 55/61/2 63/62/2 64/52/2
f 55/61/43 64/52/43 56/50/43
f 54/47/44 65/46/44 55/63/44
f 65/46/2 63/64/2 55/63/2
f 29/29/29 28/65/29 55/66/29
f 29/29/45 55/66/45 56/30/45
f 28/67/28 27/41/28 54/44/28
f 28/67/28 54/44/28 55/68/28
f 10/17/28 9/69/28 52/70/28
f 10/17/28 52/70/28 53/18/28
f 9/71/29 8/26/29 51/25/29
f 9/71/29 51/25/29 52/72/29
