# Blender3D v249 OBJ File: Master.blend
# www.blender3d.org
mtllib tablepeice.mtl
v 0.999599 1.715055 -1.002240
v 0.999599 1.715055 0.997760
v -1.000401 1.715055 0.997760
v -1.000400 1.715055 -1.002241
v -1.000400 1.415055 -1.002241
v 0.999599 1.415055 0.997760
v -0.600401 1.415055 0.597760
v -0.600401 1.415055 0.997760
v -1.000401 1.415055 0.997760
v -1.000400 1.415055 0.597760
v -1.000401 0.015055 0.997760
v -0.600401 0.015055 0.997760
v -0.600401 0.015055 0.597760
v -1.000400 0.015055 0.597760
vt 0.763632 0.822641
vt 0.763632 0.006913
vt 0.996698 0.006913
vt 0.996698 0.822641
vt 1.002960 0.790269
vt 0.780061 0.790269
vt 0.780061 0.010123
vt 1.002960 0.010123
vt 0.009555 0.799541
vt 0.009555 -0.145059
vt 0.279441 -0.145059
vt 0.279441 0.799541
vt 0.257286 0.812784
vt 0.005174 0.812784
vt 0.005174 -0.069604
vt 0.257286 -0.069604
vt 1.265730 1.001868
vt 0.005174 1.001868
vt 1.265730 0.812784
vt 0.996698 0.997440
vt -0.168629 0.997440
vt -0.168629 0.822641
vt 0.000000 0.000000
vt 1.000000 0.000000
vt 1.000000 1.000000
vt 0.000000 1.000000
vn -1.000000 -0.000000 -0.000000
vn 0.000000 -0.000000 -1.000000
vn 1.000000 0.000000 0.000000
vn -0.000000 0.000000 1.000000
vn 0.000000 1.000000 0.000000
usemtl Hardwood_hardwood.tga
s off
f 10/1/1 14/2/1 11/3/1
f 10/1/1 11/3/1 9/4/1
f 10/5/2 7/6/2 13/7/2
f 10/5/2 13/7/2 14/8/2
f 8/9/3 12/10/3 13/11/3
f 8/9/3 13/11/3 7/12/3
f 8/13/4 9/14/4 11/15/4
f 8/13/4 11/15/4 12/16/4
f 2/17/4 3/18/4 9/14/4
f 2/17/4 9/14/4 6/19/4
f 3/20/1 4/21/1 5/22/1
f 3/20/1 5/22/1 9/4/1
f 1/23/5 4/24/5 3/25/5
f 1/23/5 3/25/5 2/26/5
