# Blender3D v249 OBJ File: Master.blend
# www.blender3d.org
mtllib trashbag.mtl
v -0.458616 1.945742 0.553212
v -0.444793 1.967092 0.577155
v -0.248837 2.064279 0.435348
v -0.248837 2.099210 0.435348
v -0.427707 1.938502 0.718388
v -0.413093 1.963287 0.676068
v -0.275643 1.949547 0.643497
v -0.293156 1.972571 0.633579
v -0.300161 2.048783 0.445423
v -0.317674 2.071807 0.435505
v -0.455387 1.860031 0.443461
v -0.472899 1.883055 0.433544
v -0.520610 1.860031 0.332873
v -0.515872 1.883055 0.313313
v -0.252074 2.096989 0.424265
v -0.250640 2.069865 0.438313
v -0.175857 2.098641 0.257769
v -0.187007 2.070496 0.262089
v -0.087220 2.045866 0.362705
v -0.076069 2.074011 0.358385
v -0.248837 2.068061 0.438313
v -0.250271 2.095186 0.424265
v -0.514068 1.881252 0.313313
v -0.518807 1.858228 0.332873
v -0.471096 1.881252 0.433544
v -0.453583 1.858228 0.443461
v -0.315870 2.070004 0.435505
v -0.298358 2.046980 0.445423
v -0.291353 1.970767 0.633579
v -0.273840 1.947744 0.643497
v -0.411290 1.961484 0.676068
v -0.425904 1.936699 0.718388
v -0.247034 2.097406 0.435348
v -0.247034 2.062476 0.435348
v -0.442989 1.965289 0.577155
v -0.456813 1.943939 0.553212
v 0.211538 -0.004827 -0.063324
v 0.861292 0.259568 0.327522
v 0.058983 0.259568 0.918719
v -0.747332 0.259568 0.215153
v -0.443330 0.259568 -0.810874
v 0.599297 0.259568 -0.679334
v 0.419706 1.432552 0.626730
v -0.338114 1.413332 0.626333
v -0.638313 1.201913 -0.407329
v 0.014389 1.221133 -0.955077
v 0.820704 1.221133 -0.251511
v -0.238298 1.987724 0.056047
v 0.793988 0.077540 0.281520
v 0.082422 0.077539 0.805852
v 0.444330 0.187077 0.623211
v 0.518657 0.077540 -0.666519
v 0.820192 0.187078 -0.240091
v -0.632696 0.077543 0.181860
v -0.414453 0.187078 0.669670
v -0.363078 0.077539 -0.728121
v -0.709706 0.187078 -0.346966
v 0.053350 0.187077 -0.909230
v 0.677096 0.672432 -0.713679
v 0.934507 0.672432 0.039481
v 0.736190 0.672432 0.538454
v 0.264596 0.672432 0.885953
v -0.216246 0.672432 0.907302
v -0.777498 0.672432 0.533966
v -0.959973 0.672432 -0.094345
v -0.710758 0.672432 -0.687322
v -0.212324 0.672432 -0.941485
v 0.244533 0.672432 -0.926881
v 0.772833 1.505042 0.275332
v 0.009777 1.505044 0.837596
v -0.597213 1.274403 0.160284
v -0.457708 1.293625 -0.772079
v 0.487825 1.293623 -0.706028
v 0.489521 1.593582 -0.155328
v 0.073696 2.022829 0.585479
v -0.361062 2.003609 0.501204
v -0.306399 1.574364 -0.264827
v 0.015581 1.593584 -0.568876
v -0.220748 2.092752 0.382734
v -0.170280 2.099502 0.429586
v -0.166419 2.090605 0.352012
v -0.190136 2.136366 0.479913
v -0.286588 2.143620 0.310028
v -0.097519 2.145806 0.307341
v -0.403453 2.071642 0.270128
v -0.227833 2.068834 0.621663
v -0.015706 2.025468 0.171121
v -0.394763 2.030505 0.389871
v -0.305343 2.070933 0.614352
v -0.078706 2.069649 0.491614
v 0.037222 2.090141 0.347648
v -0.350587 2.102252 0.154591
v -0.170526 2.160170 0.129263
v -0.168663 2.173515 0.278883
v -0.230170 2.177112 0.296117
v -0.110953 2.173388 0.355465
v -0.132365 2.177140 0.419557
v -0.216262 2.167484 0.437453
v -0.257662 2.166437 0.368445
v -0.124972 2.167596 0.294771
v -0.196996 2.173074 0.462122
v -0.256539 2.175289 0.331634
v -0.177669 2.122568 0.344207
v -0.168950 2.121386 0.347378
v -0.189944 2.123285 0.347647
v -0.195206 2.122922 0.354735
v -0.170425 2.123291 0.372281
v -0.183323 2.122480 0.380776
v -0.166152 2.122542 0.359490
v -0.195430 2.121155 0.362081
v -0.187168 2.121364 0.375853
v -0.180835 2.077559 0.355230
v -0.178017 2.077177 0.356255
v -0.184802 2.077791 0.356342
v -0.186503 2.077674 0.358633
v -0.178494 2.077793 0.364304
v -0.182662 2.077531 0.367050
v -0.177112 2.077551 0.360170
v -0.186576 2.077103 0.361007
v -0.183905 2.077170 0.365458
vt 0.807495 0.117907
vt 0.961994 0.152463
vt 0.940320 0.226552
vt 0.671537 0.086761
vt 0.667961 0.171827
vt 1.223058 0.043354
vt 1.082304 0.268742
vt 1.205998 0.298939
vt 1.184515 0.405046
vt 0.518799 0.165749
vt 0.362137 0.183676
vt 0.382831 0.271459
vt 1.627939 0.183676
vt 0.251939 0.323094
vt 0.137343 0.328225
vt 0.147732 0.411000
vt 1.403145 0.328225
vt 0.045017 0.385331
vt 1.310819 0.385331
vt 0.978556 0.435087
vt 1.161183 0.543903
vt 1.006356 0.709020
vt 0.720455 0.337690
vt 0.857252 0.369965
vt 0.762309 0.665340
vt 0.471787 0.410904
vt 0.612159 0.349731
vt 0.591837 0.673557
vt 0.217956 0.557550
vt 0.344676 0.490421
vt 0.297150 0.766120
vt 1.245060 0.575166
vt 0.100781 0.586370
vt -0.020741 0.575166
vt 0.043685 0.799884
vt 0.867668 0.716554
vt 0.671537 0.650113
vt 0.461984 0.725247
vt 0.189614 0.812750
vt 1.150019 0.811396
vt 1.309487 0.799884
vt 0.689728 0.801400
vt 0.931395 0.891204
vt 0.581387 0.934562
vt 0.597802 0.809880
vt 0.382689 0.964308
vt 0.060014 0.976859
vt 0.391864 1.012805
vt 0.031639 0.969962
vt 1.301441 1.001962
vt 0.284109 0.591047
vt 0.362922 0.677363
vt 0.546761 0.719246
vt 0.677346 0.680634
vt 0.513049 0.280754
vt 0.655249 0.377372
vt 0.719246 0.533132
vt 0.280754 0.501587
vt 0.404493 0.333879
vt 0.516606 0.508382
vt 0.517213 0.518637
vt 0.513073 0.512060
vt 0.516071 0.519826
vt 0.505482 0.522349
vt 0.513618 0.523151
vt 0.513684 0.524925
vt 0.505688 0.527837
vt 0.529813 0.533333
vt 0.521482 0.526702
vt 0.522313 0.523777
vt 0.532383 0.524284
vt 0.521044 0.520688
vt 0.528457 0.514728
vt 0.515247 0.526637
vt 0.510523 0.533133
vt 0.521801 0.535702
vt 0.518892 0.527467
vt 0.504044 0.447608
vt 0.486342 0.466039
vt 0.448303 0.517594
vt 0.449334 0.545095
vt 0.570220 0.572636
vt 0.583100 0.527292
vt 0.563427 0.479409
vt 0.473562 0.571630
vt 0.530077 0.584505
vt 0.508667 0.425928
vt 0.595444 0.563244
vt 0.411511 0.564088
vt 0.528591 0.471917
vt 0.532138 0.529871
vt 0.482219 0.506919
vt 0.633838 0.866164
vt 0.632621 0.845303
vt 0.622495 0.856025
vt 0.040333 0.046293
vt 0.085419 0.046293
vt 0.040333 0.001207
vt 0.085419 0.001207
vn 0.558885 -0.332072 0.759819
vn 0.545854 -0.799249 0.251350
vn 0.887112 -0.235908 0.396649
vn 0.076968 -0.842555 0.533006
vn 0.083102 -0.304971 0.948698
vn 0.015351 -0.999847 -0.004456
vn 0.896329 -0.357585 -0.262093
vn 0.370891 -0.832606 -0.411298
vn 0.608631 -0.246467 -0.754143
vn -0.547441 -0.505081 0.667196
vn -0.447371 -0.884823 0.129917
vn -0.852199 -0.460067 0.249153
vn -0.801386 -0.538011 -0.261330
vn -0.263039 -0.885250 -0.383526
vn -0.512619 -0.338939 -0.788842
vn 0.076357 -0.373638 -0.924406
vn 0.999634 0.025697 0.005066
vn 0.790277 0.004578 -0.612720
vn 0.860927 0.386364 -0.330912
vn 0.402356 0.007843 0.915433
vn 0.746635 0.015046 0.665059
vn 0.568041 0.258766 0.781213
vn -0.832545 0.038057 0.552599
vn -0.347056 0.022980 0.937529
vn -0.698050 0.231178 0.677664
vn -0.788232 0.007080 -0.615284
vn -0.997955 0.047670 -0.042238
vn -0.834712 0.515854 -0.192694
vn 0.305918 -0.025513 -0.951689
vn -0.240242 -0.019623 -0.970489
vn 0.049867 0.363231 -0.930326
vn 0.852290 0.460829 0.247353
vn -0.052492 0.264687 0.962889
vn -0.885708 0.446669 0.126408
vn -0.556200 0.522660 -0.646077
vn 0.535569 0.490493 -0.687429
vn 0.414533 0.849025 0.327555
vn 0.503128 0.796808 -0.334513
vn -0.143712 0.885281 -0.442274
vn -0.779168 0.578600 0.240944
vn -0.728721 0.616749 -0.297494
vn -0.027985 0.818079 -0.574389
vn -0.011353 -0.998596 0.051149
vn -0.460005 0.842433 -0.280404
vn 0.213904 0.792627 -0.570910
vn 0.312357 -0.872341 -0.376049
vn -0.318400 -0.935728 0.151646
vn 0.742973 0.217475 0.632984
vn 0.777062 0.628956 0.023988
vn -0.864650 0.277779 0.418531
vn -0.556536 0.546617 0.625629
vn -0.078890 0.669698 -0.738395
vn 0.402875 0.272713 -0.873653
vn 0.671010 0.531571 -0.516831
vn 0.813105 0.189459 -0.550371
vn 0.884243 0.429395 -0.183477
vn 0.953917 0.197241 -0.226051
vn 0.944731 0.203803 0.256691
vn 0.727470 0.568804 0.383709
vn -0.602130 0.593829 0.533616
vn -0.717185 0.275582 0.640034
vn -0.971160 0.236946 0.025483
vn -0.882595 0.450911 -0.132878
vn -0.770104 0.240181 -0.590930
vn -0.684530 0.558763 -0.468123
vn 0.555162 0.216224 0.803125
vn 0.431623 0.582507 0.688711
vn 0.077090 0.481094 0.873226
vn -0.113559 0.243843 0.963134
vn 0.049074 0.987213 0.151646
vn -0.123997 0.992248 0.007324
vn 0.066317 0.992035 0.106876
vn -0.103427 0.985931 0.131108
vn 0.207923 0.976928 -0.048067
vn -0.184851 0.982269 0.030732
vn -0.077639 0.988952 -0.126133
vn 0.111911 0.977508 0.178716
vn 0.073763 0.910733 0.406323
vn 0.223426 -0.973113 0.055727
vn -0.261086 -0.961425 0.086306
vn -0.145054 -0.986847 -0.071078
vn 0.147282 0.867458 0.475204
vn 0.476943 0.195593 -0.856868
vn -0.818323 -0.574541 -0.015107
vn 0.795099 -0.604053 -0.053957
vn 0.659413 -0.412610 0.628407
vn 0.852229 -0.402966 0.333537
vn 0.586230 0.000000 0.810114
vn 0.370220 -0.726920 -0.578326
vn 0.284646 -0.866817 -0.409345
vn -0.601886 -0.654744 -0.457167
vn -0.418714 -0.709769 -0.566454
vn -0.300180 -0.560717 -0.771630
vn 0.626576 -0.128880 -0.768578
vn 0.594928 0.109500 -0.796258
vn 0.849483 -0.223884 -0.477706
vn 0.711844 -0.461348 -0.529496
vn 0.588549 -0.347026 -0.730155
vn 0.623280 -0.463576 -0.629719
vn -0.224189 -0.060457 -0.972655
vn 0.619617 -0.353069 -0.700949
vn -0.240150 -0.279946 -0.929472
vn -0.985351 0.170446 0.000641
vn -0.882199 0.285470 0.374432
vn -0.711844 0.461348 0.529496
vn -0.849483 0.223884 0.477706
vn -0.626576 0.128880 0.768609
vn -0.594928 -0.109500 0.796258
vn 0.300180 0.560717 0.771630
vn 0.601886 0.654744 0.457137
vn 0.418683 0.709769 0.566424
vn -0.370220 0.726920 0.578326
vn -0.284646 0.866817 0.409345
vn -0.852229 0.402997 -0.333537
vn -0.795099 0.604053 0.053957
vn -0.659413 0.412610 -0.628407
vn -0.586230 0.000000 -0.810114
usemtl TrashBag_trashbag.tga
s 1
f 51/1/1 49/2/2 38/3/3
f 49/2/2 51/1/1 50/4/4
f 39/5/5 50/4/4 51/1/1
f 50/4/4 37/6/6 49/2/2
f 53/7/7 38/3/3 49/2/2
f 49/2/2 52/8/8 53/7/7
f 42/9/9 53/7/7 52/8/8
f 49/2/2 37/6/6 52/8/8
f 55/10/10 50/4/4 39/5/5
f 50/4/4 55/10/10 54/11/11
f 40/12/12 54/11/11 55/10/10
f 54/13/11 37/6/6 50/4/4
f 57/14/13 54/11/11 40/12/12
f 54/11/11 57/14/13 56/15/14
f 41/16/15 56/15/14 57/14/13
f 56/17/14 37/6/6 54/13/11
f 58/18/16 56/15/14 41/16/15
f 56/17/14 58/19/16 52/8/8
f 42/9/9 52/8/8 58/19/16
f 52/8/8 37/6/6 56/17/14
f 60/20/17 38/3/3 53/7/7
f 53/7/7 59/21/18 60/20/17
f 47/22/19 60/20/17 59/21/18
f 59/21/18 53/7/7 42/9/9
f 62/23/20 39/5/5 51/1/1
f 51/1/1 61/24/21 62/23/20
f 43/25/22 62/23/20 61/24/21
f 61/24/21 51/1/1 38/3/3
f 64/26/23 40/12/12 55/10/10
f 55/10/10 63/27/24 64/26/23
f 44/28/25 64/26/23 63/27/24
f 63/27/24 55/10/10 39/5/5
f 66/29/26 41/16/15 57/14/13
f 57/14/13 65/30/27 66/29/26
f 45/31/28 66/29/26 65/30/27
f 65/30/27 57/14/13 40/12/12
f 68/32/29 42/9/9 58/19/16
f 58/18/16 67/33/30 68/34/29
f 46/35/31 68/34/29 67/33/30
f 67/33/30 58/18/16 41/16/15
f 69/36/32 60/20/17 47/22/19
f 60/20/17 69/36/32 61/24/21
f 43/25/22 61/24/21 69/36/32
f 61/24/21 38/3/3 60/20/17
f 70/37/33 62/23/20 43/25/22
f 62/23/20 70/37/33 63/27/24
f 44/28/25 63/27/24 70/37/33
f 63/27/24 39/5/5 62/23/20
f 71/38/34 64/26/23 44/28/25
f 64/26/23 71/38/34 65/30/27
f 45/31/28 65/30/27 71/38/34
f 65/30/27 40/12/12 64/26/23
f 72/39/35 66/29/26 45/31/28
f 66/29/26 72/39/35 67/33/30
f 46/35/31 67/33/30 72/39/35
f 67/33/30 41/16/15 66/29/26
f 73/40/36 68/32/29 46/41/31
f 68/32/29 73/40/36 59/21/18
f 47/22/19 59/21/18 73/40/36
f 59/21/18 42/9/9 68/32/29
f 75/42/37 43/25/22 69/36/32
f 69/36/32 74/43/38 75/42/37
f 48/44/39 75/42/37 74/43/38
f 74/43/38 69/36/32 47/22/19
f 76/45/40 44/28/25 70/37/33
f 70/37/33 75/42/37 76/45/40
f 75/42/37 70/37/33 43/25/22
f 77/46/41 45/31/28 71/38/34
f 71/38/34 76/45/40 77/46/41
f 48/44/39 77/46/41 76/45/40
f 76/45/40 71/38/34 44/28/25
f 78/47/42 46/35/31 72/39/35
f 72/39/35 77/48/41 78/49/42
f 48/44/39 78/49/42 77/48/41
f 77/46/41 72/39/35 45/31/28
f 74/43/38 47/22/19 73/40/36
f 73/40/36 78/50/42 74/43/38
f 48/44/39 74/43/38 78/50/42
f 78/50/42 73/40/36 46/41/31
f 85/51/43 92/52/44 93/53/45
f 85/51/43 93/53/45 87/54/46
f 86/55/47 87/54/46 90/56/48
f 87/54/46 91/57/49 90/56/48
f 85/51/43 86/55/47 88/58/50
f 86/55/47 89/59/51 88/58/50
f 108/60/52 117/61/53 111/62/54
f 117/61/53 120/63/55 111/62/54
f 111/62/54 120/63/55 110/64/56
f 120/63/55 119/65/57 110/64/56
f 110/64/56 119/65/57 115/66/58
f 110/64/56 115/66/58 106/67/59
f 104/68/60 113/69/61 118/70/62
f 104/68/60 118/70/62 109/71/63
f 109/71/63 118/70/62 116/72/64
f 109/71/63 116/72/64 107/73/65
f 107/73/65 116/72/64 108/60/52
f 116/72/64 117/61/53 108/60/52
f 106/67/59 115/66/58 114/74/66
f 106/67/59 114/74/66 105/75/67
f 105/75/67 114/74/66 103/76/68
f 114/74/66 112/77/69 103/76/68
f 103/76/68 112/77/69 104/68/60
f 112/77/69 113/69/61 104/68/60
f 101/78/70 108/60/52 98/79/71
f 108/60/52 111/62/54 98/79/71
f 98/79/71 111/62/54 99/80/72
f 111/62/54 110/64/56 99/80/72
f 99/80/72 110/64/56 106/67/59
f 99/80/72 106/67/59 102/81/73
f 100/82/74 104/68/60 96/83/75
f 104/68/60 109/71/63 96/83/75
f 96/83/75 109/71/63 107/73/65
f 96/83/75 107/73/65 97/84/76
f 97/84/76 107/73/65 108/60/52
f 97/84/76 108/60/52 101/78/70
f 102/81/73 106/67/59 95/85/77
f 106/67/59 105/75/67 95/85/77
f 95/85/77 105/75/67 94/86/78
f 105/75/67 103/76/68 94/86/78
f 94/86/78 103/76/68 104/68/60
f 94/86/78 104/68/60 100/82/74
f 86/55/47 101/78/70 98/79/71
f 86/55/47 98/79/71 89/59/51
f 89/59/51 98/79/71 88/58/50
f 98/79/71 99/80/72 88/58/50
f 88/58/50 99/80/72 85/51/43
f 99/80/72 102/81/73 85/51/43
f 87/54/46 100/82/74 91/57/49
f 100/82/74 96/83/75 91/57/49
f 91/57/49 96/83/75 90/56/48
f 96/83/75 97/84/76 90/56/48
f 90/56/48 97/84/76 101/78/70
f 90/56/48 101/78/70 86/55/47
f 85/51/43 102/81/73 92/52/44
f 102/81/73 95/85/77 92/52/44
f 92/52/44 95/85/77 93/53/45
f 95/85/77 94/86/78 93/53/45
f 93/53/45 94/86/78 100/82/74
f 93/53/45 100/82/74 87/54/46
f 82/87/79 84/88/80 86/55/47
f 84/88/80 87/54/46 86/55/47
f 84/88/80 83/89/81 85/51/43
f 84/88/80 85/51/43 87/54/46
f 83/89/81 82/87/79 85/51/43
f 82/87/79 86/55/47 85/51/43
f 80/90/82 81/91/83 82/87/79
f 81/91/83 84/88/80 82/87/79
f 81/91/83 79/92/84 83/89/81
f 81/91/83 83/89/81 84/88/80
f 79/92/84 80/90/82 82/87/79
f 79/92/84 82/87/79 83/89/81
f 75/42/37 81/93/83 80/94/82
f 75/42/37 48/44/39 81/93/83
f 48/44/39 76/45/40 81/93/83
f 81/93/83 76/45/40 79/95/84
f 76/45/40 80/94/82 79/95/84
f 76/45/40 75/42/37 80/94/82
f 36/96/85 34/97/86 35/98/87
f 34/97/86 33/99/88 35/98/87
f 35/96/87 31/97/89 36/98/85
f 31/97/89 32/99/90 36/98/85
f 31/96/89 29/97/91 30/99/92
f 31/96/89 30/99/92 32/98/90
f 29/96/91 27/97/93 28/99/93
f 29/96/91 28/99/93 30/98/92
f 27/96/93 28/98/93 25/97/94
f 28/98/93 26/99/95 25/97/94
f 25/96/94 26/98/95 24/99/96
f 25/96/94 24/99/96 23/97/97
f 23/96/97 22/97/98 21/99/99
f 23/96/97 21/99/99 24/98/96
f 17/98/100 20/96/101 18/99/102
f 20/96/101 19/97/101 18/99/102
f 15/98/103 17/96/100 18/97/102
f 15/98/103 18/97/102 16/99/104
f 14/98/105 13/99/106 16/97/104
f 14/98/105 16/97/104 15/96/103
f 12/98/107 14/96/105 13/97/106
f 12/98/107 13/97/106 11/99/108
f 10/98/109 12/96/107 9/99/109
f 12/96/107 11/97/108 9/99/109
f 8/98/110 7/99/111 9/97/109
f 8/98/110 9/97/109 10/96/109
f 6/98/112 5/99/113 7/97/111
f 6/98/112 7/97/111 8/96/110
f 2/98/114 1/99/115 6/96/112
f 1/99/115 5/97/113 6/96/112
f 1/98/115 2/99/114 3/96/116
f 2/99/114 4/97/117 3/96/116
