# Blender3D v249 OBJ File: Master.blend
# www.blender3d.org
mtllib trashlid.mtl
v 0.253627 0.297452 -0.055443
v 0.253627 0.297452 0.053108
v -0.000438 0.319796 0.053108
v -0.000438 0.319796 -0.055443
v 0.782949 -0.056210 -0.777584
v 1.105658 -0.056210 0.001505
v 0.782949 -0.056210 0.780594
v 0.003859 -0.056210 1.103304
v -0.775230 -0.056210 0.780594
v -1.097939 -0.056210 0.001505
v -0.775230 -0.056210 -0.777584
v 0.003859 -0.056210 -1.100294
v 0.753678 0.158493 -0.748313
v 1.064263 0.158493 0.001505
v 0.753678 0.158493 0.751323
v 0.003859 0.158493 1.061908
v -0.745959 0.158493 0.751323
v -1.056544 0.158493 0.001505
v -0.745959 0.158493 -0.748313
v 0.003859 0.158493 -1.058898
v -0.000928 0.242955 0.001524
v 0.283615 0.207489 -0.055443
v 0.283615 0.207489 0.053108
v -0.253966 0.298326 0.053108
v -0.253966 0.298326 -0.055443
v -0.284407 0.207001 -0.055443
v -0.284408 0.207001 0.053108
v -0.283657 0.208126 0.052074
v -0.283657 0.208126 -0.054409
v -0.253296 0.297710 -0.054409
v -0.253296 0.297710 0.052074
v 0.282865 0.208604 0.052074
v 0.282865 0.208604 -0.054409
v -0.000438 0.318772 -0.054409
v -0.000438 0.318772 0.052074
v 0.252956 0.296853 0.052074
v 0.252956 0.296853 -0.054409
vt 0.500000 0.721384
vt 0.278616 0.500000
vt 0.500000 0.278616
vt 0.500208 0.280264
vt 0.498646 0.721683
vt 0.276354 0.502236
vt 0.484383 0.306554
vt 0.557340 0.306554
vt 0.557340 0.480817
vt 0.484383 0.480817
vt 0.484383 0.242711
vt 0.557340 0.242711
vt 0.557340 0.654664
vt 0.484383 0.654664
vt 0.557340 0.719473
vt 0.484383 0.719473
vt 0.481723 0.653389
vt 0.556241 0.653389
vt 0.556241 0.719473
vt 0.481723 0.719473
vt 0.481723 0.478722
vt 0.556241 0.478722
vt 0.556241 0.303637
vt 0.481723 0.303637
vt 0.481723 0.238537
vt 0.556241 0.238537
vt 0.666981 0.811705
vt 0.605480 0.811705
vt 0.605480 0.328334
vt 0.666981 0.328334
vn -0.456160 0.764092 0.456130
vn -0.000183 1.000000 0.000000
vn -0.815607 0.578570 0.000000
vn 0.000000 0.578661 0.815546
vn 0.455977 0.764244 0.456008
vn 0.749870 0.654286 0.097842
vn 0.576647 0.578722 -0.576647
vn -0.097873 0.654195 -0.749931
vn -0.456160 0.764092 -0.456130
vn -0.617176 -0.786798 0.000000
vn -0.001587 -0.999969 0.000000
vn -0.947081 -0.320963 0.000000
vn 0.769951 -0.638050 0.000000
vn 0.433454 -0.901151 0.000000
vn 0.947081 -0.320963 0.000000
vn -0.772515 0.634968 0.000000
vn -0.435591 0.900113 0.000000
vn -0.948668 0.316202 0.000000
vn 0.001617 0.999969 0.000000
vn 0.619709 0.784814 0.000000
vn 0.948668 0.316202 0.000000
vn 0.694296 0.189306 -0.694296
vn 0.134342 0.187597 -0.972991
vn -0.694296 0.189306 -0.694296
vn -0.981903 0.189306 0.000000
vn -0.694296 0.189306 0.694296
vn 0.000000 0.189306 0.981903
vn 0.694296 0.189306 0.694296
vn 0.972991 0.187597 -0.134342
usemtl Trash_Lid_trashcan.tga
s 1
f 17/1/1 21/2/2 18/3/3
f 16/1/4 21/2/2 17/3/1
f 15/1/5 21/2/2 16/3/4
f 14/1/6 21/2/2 15/3/5
f 13/1/7 21/2/2 14/3/6
f 13/4/7 20/5/8 21/6/2
f 19/1/9 21/2/2 20/3/8
f 18/1/3 21/2/2 19/3/9
f 37/7/10 36/8/10 35/9/11
f 37/7/10 35/9/11 34/10/11
f 37/7/10 33/11/12 32/12/12
f 37/7/10 32/12/12 36/8/10
f 35/9/11 31/13/13 30/14/14
f 35/9/11 30/14/14 34/10/11
f 31/13/13 28/15/15 29/16/15
f 31/13/13 29/16/15 30/14/14
f 24/17/16 25/18/17 26/19/18
f 24/17/16 26/19/18 27/20/18
f 3/21/19 4/22/19 25/18/17
f 3/21/19 25/18/17 24/17/16
f 1/23/20 2/24/20 23/25/21
f 1/23/20 23/25/21 22/26/21
f 13/27/7 5/28/22 12/29/23
f 13/27/7 12/29/23 20/30/8
f 11/29/24 19/30/9 20/27/8
f 11/29/24 20/27/8 12/28/23
f 11/28/24 10/29/25 18/30/3
f 11/28/24 18/30/3 19/27/9
f 9/29/26 17/30/1 18/27/3
f 9/29/26 18/27/3 10/28/25
f 9/28/26 8/29/27 16/30/4
f 9/28/26 16/30/4 17/27/1
f 7/29/28 15/30/5 16/27/4
f 7/29/28 16/27/4 8/28/27
f 7/28/28 6/29/29 14/30/6
f 7/28/28 14/30/6 15/27/5
f 6/28/29 5/29/22 13/30/7
f 6/28/29 13/30/7 14/27/6
f 1/23/20 4/22/19 3/21/19
f 1/23/20 3/21/19 2/24/20
