# Blender3D v249 OBJ File: Master.blend
# www.blender3d.org
mtllib tree.mtl
v 0.527731 -0.000109 -0.530047
v 0.748984 -0.000109 0.004107
v 0.527731 -0.000109 0.538260
v -0.006422 -0.000109 0.759513
v -0.540575 -0.000109 0.538260
v -0.761829 -0.000109 0.004107
v -0.540575 -0.000109 -0.530046
v -0.006422 -0.000109 -0.751300
v 0.367485 1.199891 -0.369801
v 0.522362 1.199891 0.004106
v 0.367485 1.199891 0.378014
v -0.006422 1.199891 0.532891
v -0.380329 1.199891 0.378014
v -0.535207 1.199891 0.004106
v -0.380329 1.199891 -0.369801
v -0.006422 1.199891 -0.524678
v 0.274986 4.199891 -0.277301
v 0.391549 4.199891 0.004106
v 0.274986 4.199891 0.285514
v -0.006422 4.199891 0.402077
v -0.287830 4.199891 0.285514
v -0.404393 4.199891 0.004106
v -0.287830 4.199891 -0.277301
v -0.006422 4.199891 -0.393864
v 0.169071 4.599891 -0.171387
v 0.241763 4.599891 0.004106
v 0.169071 4.599891 0.179599
v -0.006422 4.599891 0.252291
v -0.181915 4.599891 0.179599
v -0.254607 4.599891 0.004106
v -0.181915 4.599891 -0.171387
v -0.006422 4.599891 -0.244078
v 1.193714 4.705009 0.594460
v 1.276019 4.705009 0.395758
v 1.193714 4.422571 0.594460
v 1.276019 4.422571 0.395758
v 2.048272 4.211077 0.694166
v 1.976438 4.211077 0.867590
v 2.048272 4.457586 0.694166
v 1.976438 4.457586 0.867590
v 2.820287 4.613430 1.186177
v 2.866083 4.619510 1.072507
v 2.879381 4.464364 1.202011
v 2.925177 4.470445 1.088342
v -0.565754 4.921822 -1.640788
v -0.774031 4.921822 -1.554517
v -0.565754 4.625771 -1.640788
v -0.774031 4.625771 -1.554517
v -1.032318 4.464756 -2.198278
v -0.866381 4.464756 -2.267011
v -1.032318 4.700623 -2.198278
v -0.866381 4.700623 -2.267011
v -1.181313 4.867601 -2.950498
v -1.324991 4.867601 -2.890985
v -1.181313 4.663373 -2.950498
v -1.324991 4.663373 -2.890985
v -0.729528 4.637913 1.506740
v -0.581679 4.637913 1.567981
v -0.729528 4.427757 1.506740
v -0.581679 4.427757 1.567981
v -0.900718 4.809971 2.324037
v -1.048567 4.809971 2.262795
v -0.900718 5.020127 2.324037
v -1.048567 5.020127 2.262795
v -1.260183 4.853575 2.873624
v -1.183004 4.853575 2.905593
v -1.260183 4.743872 2.873624
v -1.183004 4.743872 2.905593
v 0.100408 5.499891 -0.102724
v 0.144659 5.499891 0.004106
v 0.100408 5.499891 0.110937
v -0.006422 5.499891 0.155187
v -0.113253 5.499891 0.110937
v -0.157503 5.499891 0.004106
v -0.113253 5.499891 -0.102724
v -0.006422 5.499891 -0.146975
v 0.080071 5.599891 -0.082387
v 0.115898 5.599891 0.004106
v 0.080071 5.599891 0.090599
v -0.006422 5.599891 0.126426
v -0.092915 5.599891 0.090599
v -0.128742 5.599891 0.004106
v -0.092915 5.599891 -0.082387
v -0.006422 5.599891 -0.118213
v 0.618859 5.856016 -1.243210
v 0.725690 5.856016 -1.198960
v 0.618859 5.756016 -1.243210
v 0.725690 5.756016 -1.198960
v 0.623620 5.922113 1.568837
v 0.730451 5.922113 1.524586
v 0.623620 5.822113 1.568837
v 0.730451 5.822113 1.524586
v -1.738717 5.851885 -0.431426
v -1.782968 5.851885 -0.324595
v -1.738717 5.751885 -0.431426
v -1.782968 5.751885 -0.324595
v 0.039121 5.785788 -0.016549
v 0.025782 5.785788 -0.048753
v 0.025782 5.785788 0.015655
v -0.006422 5.785788 0.028994
v -0.038626 5.785788 0.015655
v -0.051965 5.785788 -0.016549
v -0.038626 5.785788 -0.048753
v -0.006422 5.785788 -0.062092
vt 1.934684 5.952106
vt 1.934682 6.251789
vt 1.653894 6.251789
vt 1.531658 5.952106
vt 2.337710 5.952106
vt 2.215470 6.251789
vt -0.886485 5.952106
vt -0.483459 5.952106
vt -0.701950 6.251789
vt -1.008725 6.251789
vt -0.080434 5.952106
vt -0.306765 6.251789
vt 0.322590 5.952106
vt 0.322597 6.251789
vt 0.725612 5.952106
vt 0.951945 6.251789
vt 1.128635 5.952106
vt 1.347122 6.251789
vt 0.407580 0.146228
vt 0.592420 0.146228
vt 0.592420 0.853772
vt 0.407580 0.853772
vt 1.934684 5.790895
vt 2.337710 5.790895
vt -0.483460 5.790895
vt -0.080435 5.790895
vt 0.322589 5.790895
vt 0.725612 5.790895
vt 1.128635 5.790895
vt 1.531659 5.790895
vt 1.934685 4.340008
vt 1.531660 4.340008
vt 2.337710 4.340008
vt -0.886485 4.340008
vt -0.483460 4.340008
vt -0.886485 5.790895
vt -0.080436 4.340008
vt 0.322589 4.340008
vt 0.725612 4.340008
vt 1.128636 4.340008
vt 0.373958 0.209605
vt 0.626042 0.209605
vt 0.626042 0.790395
vt 0.373958 0.790395
vt 0.357239 0.207470
vt 0.642761 0.207470
vt 0.642761 0.792530
vt 0.357239 0.792530
vt 0.406691 0.314986
vt 0.593309 0.314986
vt 0.406691 0.685014
vt 0.593309 0.685014
vt 0.580503 1.004932
vt 0.409710 1.006290
vt 0.409710 0.007829
vt 0.603090 0.006290
vt 1.934685 3.695169
vt 1.531661 3.695169
vt -0.886485 3.695169
vt -0.483461 3.695169
vt -0.080436 3.695169
vt 0.322588 3.695169
vt 0.725612 3.695168
vt 1.128636 3.695168
vt 1.934686 -1.141123
vt 1.531661 -1.141124
vt 2.337710 -1.141123
vt 2.337710 3.695169
vt -0.886485 -1.141123
vt -0.483461 -1.141123
vt -0.080437 -1.141124
vt 0.322588 -1.141124
vt 0.725612 -1.141124
vt 1.128636 -1.141124
vt 1.531661 -3.075641
vt 1.934686 -3.075641
vt -1.289510 -3.075641
vt -0.886485 -3.075641
vt -1.289510 -1.141123
vt -0.483461 -3.075641
vt -0.080437 -3.075641
vt 0.322588 -3.075641
vt 0.725612 -3.075641
vt 1.128637 -3.075641
vn -0.355358 0.396405 -0.846492
vn 0.000000 0.289010 -0.957305
vn 0.572649 0.304910 -0.760949
vn 0.836085 0.527573 -0.150182
vn -0.363628 0.406659 -0.838069
vn -0.572649 0.304910 -0.760949
vn -0.631489 0.598834 0.492508
vn -0.921262 0.365825 -0.131962
vn -0.662648 0.364483 0.654195
vn -0.722098 0.429487 0.542283
vn -0.487625 0.455489 0.744804
vn 0.000000 0.464217 0.885708
vn 0.735801 0.643178 0.211890
vn 0.722098 0.429487 0.542283
vn 0.934385 0.332926 0.126591
vn 0.921262 0.365825 -0.131962
vn -0.452101 -0.483993 -0.749199
vn -0.630726 -0.406140 0.661184
vn -0.880337 0.457198 0.126286
vn -0.184271 0.831568 -0.523911
vn -0.429945 -0.061464 -0.900754
vn -0.949828 -0.210303 0.231391
vn -0.250069 -0.506729 0.825007
vn 0.926298 -0.359569 0.112369
vn 0.709677 0.434706 0.554399
vn -0.300760 0.857540 0.417310
vn -0.351421 -0.069491 0.933622
vn 0.825221 -0.191504 0.531297
vn -0.221015 -0.486465 -0.845241
vn -0.277322 0.847560 -0.452406
vn 0.714530 0.450301 -0.535356
vn 0.922513 -0.383526 -0.042940
vn -0.338054 -0.029328 -0.940642
vn 0.824610 -0.225867 -0.518601
vn -0.695212 0.192755 0.692434
vn 0.981231 0.192755 0.001953
vn 0.389477 0.312632 -0.866329
vn 0.680441 0.271859 -0.680441
vn -0.857753 0.489517 -0.156774
vn -0.972869 0.231269 0.003449
vn -0.735130 0.526048 0.427534
vn 0.354900 0.378582 0.854793
vn 0.459029 0.387646 0.799371
vn 0.759453 0.548723 -0.349437
vn -0.692923 -0.412458 0.591357
vn 0.249458 -0.834315 0.491562
vn 0.289102 0.298349 0.909604
vn -0.765648 0.601794 0.227149
vn -0.771508 -0.585528 -0.248756
vn 0.676717 -0.565874 0.470962
vn 0.458632 0.880581 0.119083
vn -0.656392 0.683554 -0.319132
vn -0.668111 0.586718 -0.457534
vn -0.625751 -0.777764 0.058657
vn 0.760369 0.606220 0.233070
vn 0.423170 -0.798639 0.427869
vn -0.921110 -0.250008 0.298318
vn 0.353008 -0.010712 0.935545
vn 0.225196 -0.508927 -0.830805
vn -0.912778 -0.379925 -0.149876
vn -0.709525 0.431928 -0.556749
vn 0.303873 0.858089 -0.413923
vn 0.533189 -0.824519 -0.189306
vn -0.552995 -0.821162 0.140812
vn -0.737877 0.587481 0.332224
vn 0.699545 0.580950 -0.416028
vn 0.530839 0.824000 -0.197913
vn 0.721885 -0.564745 -0.399823
vn -0.566271 0.816462 0.112644
vn -0.746422 -0.569353 0.344432
vn 0.339793 -0.018464 -0.940306
vn -0.813685 -0.177557 -0.553514
vn 0.222144 -0.540696 0.811335
vn 0.935392 -0.048982 -0.350169
vn 0.447035 0.642445 0.622395
vn 0.346965 0.907132 -0.238105
vn -0.254799 -0.823237 0.507248
vn 0.291391 -0.814173 -0.502182
vn 0.366619 0.448683 -0.814997
vn -0.207648 0.687185 0.696127
vn -0.219062 0.718070 0.660573
vn -0.188574 -0.694968 0.693838
vn 0.360942 0.709067 -0.605701
vn 0.208930 -0.694906 -0.688040
vn 0.293435 -0.073000 0.953154
vn 0.928404 -0.171270 -0.329691
vn 0.699271 0.148167 -0.699271
vn -0.979705 0.200262 -0.003754
vn 0.000000 0.091159 -0.995819
vn 0.641285 0.128727 -0.756401
vn -0.703085 0.114933 -0.701712
vn -0.993347 0.114933 0.000946
vn -0.701712 0.114933 0.703085
vn 0.000946 0.114933 0.993347
vn 0.703085 0.114933 0.701712
vn 0.990387 0.124882 -0.059053
vn 0.783563 0.183874 -0.593432
vn 0.000000 0.185553 -0.982604
vn -0.783563 0.183874 -0.593432
vn -0.973693 0.183874 0.134434
vn -0.593432 0.183874 0.783563
vn 0.134434 0.183874 0.973693
vn 0.783563 0.183874 0.593432
vn 0.982604 0.185553 0.000000
usemtl TreeTrunk_treebark.tga
s 1
f 84/1/1 104/2/2 98/3/3
f 84/1/1 98/3/3 77/4/4
f 84/1/1 83/5/5 103/6/6
f 84/1/1 103/6/6 104/2/2
f 83/7/5 82/8/7 102/9/8
f 83/7/5 102/9/8 103/10/6
f 82/8/7 81/11/9 101/12/10
f 82/8/7 101/12/10 102/9/8
f 81/11/9 80/13/11 100/14/12
f 81/11/9 100/14/12 101/12/10
f 80/13/11 79/15/13 100/14/12
f 79/15/13 99/16/14 100/14/12
f 79/15/13 78/17/15 99/16/14
f 78/17/15 97/18/16 99/16/14
f 78/17/15 77/4/4 97/18/16
f 77/4/4 98/3/3 97/18/16
f 95/19/17 96/20/18 94/21/19
f 95/19/17 94/21/19 93/22/20
f 75/19/21 74/20/22 95/22/17
f 74/20/22 96/21/18 95/22/17
f 74/19/22 82/20/7 96/22/18
f 82/20/7 94/21/19 96/22/18
f 82/19/7 83/20/5 93/21/20
f 82/19/7 93/21/20 94/22/19
f 83/19/5 75/20/21 95/21/17
f 83/19/5 95/21/17 93/22/20
f 91/19/23 92/20/24 90/21/25
f 91/19/23 90/21/25 89/22/26
f 72/19/27 71/20/28 91/22/23
f 71/20/28 92/21/24 91/22/23
f 71/19/28 79/20/13 92/22/24
f 79/20/13 90/21/25 92/22/24
f 79/19/13 80/20/11 89/21/26
f 79/19/13 89/21/26 90/22/25
f 80/19/11 72/20/27 91/21/23
f 80/19/11 91/21/23 89/22/26
f 87/19/29 85/20/30 86/21/31
f 87/19/29 86/21/31 88/22/32
f 76/19/33 87/20/29 69/22/34
f 87/20/29 88/21/32 69/22/34
f 69/19/34 88/20/32 77/22/4
f 88/20/32 86/21/31 77/22/4
f 84/19/1 85/20/30 87/21/29
f 84/19/1 87/21/29 76/22/33
f 77/19/4 86/20/31 85/21/30
f 77/19/4 85/21/30 84/22/1
f 76/23/33 75/24/21 83/5/5
f 76/23/33 83/5/5 84/1/1
f 74/25/22 73/26/35 81/11/9
f 74/25/22 81/11/9 82/8/7
f 73/26/35 72/27/27 80/13/11
f 73/26/35 80/13/11 81/11/9
f 71/28/28 70/29/36 78/17/15
f 71/28/28 78/17/15 79/15/13
f 70/29/36 69/30/34 77/4/4
f 70/29/36 77/4/4 78/17/15
f 32/31/37 76/23/33 69/30/34
f 32/31/37 69/30/34 25/32/38
f 32/31/37 31/33/39 75/24/21
f 32/31/37 75/24/21 76/23/33
f 31/34/39 30/35/40 74/25/22
f 31/34/39 74/25/22 75/36/21
f 30/35/40 29/37/41 73/26/35
f 30/35/40 73/26/35 74/25/22
f 29/37/41 28/38/42 72/27/27
f 29/37/41 72/27/27 73/26/35
f 28/38/42 27/39/43 71/28/28
f 28/38/42 71/28/28 72/27/27
f 27/39/43 26/40/44 70/29/36
f 27/39/43 70/29/36 71/28/28
f 26/40/44 25/32/38 69/30/34
f 26/40/44 69/30/34 70/29/36
f 67/41/45 68/42/46 66/43/47
f 67/41/45 66/43/47 65/44/48
f 62/41/49 61/42/50 68/43/46
f 62/41/49 68/43/46 67/44/45
f 61/41/50 63/42/51 66/43/47
f 61/41/50 66/43/47 68/44/46
f 63/41/51 64/42/52 65/43/48
f 63/41/51 65/43/48 66/44/47
f 64/41/52 62/42/49 65/44/48
f 62/42/49 67/43/45 65/44/48
f 57/41/53 59/42/54 62/43/49
f 57/41/53 62/43/49 64/44/52
f 58/41/55 57/42/53 63/44/51
f 57/42/53 64/43/52 63/44/51
f 60/41/56 58/42/55 61/44/50
f 58/42/55 63/43/51 61/44/50
f 59/41/54 60/42/56 61/43/50
f 59/41/54 61/43/50 62/44/49
f 21/41/57 20/42/58 60/43/56
f 21/41/57 60/43/56 59/44/54
f 20/41/58 28/42/42 58/43/55
f 20/41/58 58/43/55 60/44/56
f 28/41/42 29/42/41 58/44/55
f 29/42/41 57/43/53 58/44/55
f 29/41/41 21/42/57 57/44/53
f 21/42/57 59/43/54 57/44/53
f 55/45/59 56/46/60 54/47/61
f 55/45/59 54/47/61 53/48/62
f 50/45/63 49/46/64 55/48/59
f 49/46/64 56/47/60 55/48/59
f 49/45/64 51/46/65 56/48/60
f 51/46/65 54/47/61 56/48/60
f 51/45/65 52/46/66 53/47/62
f 51/45/65 53/47/62 54/48/61
f 52/45/66 50/46/63 55/47/59
f 52/45/66 55/47/59 53/48/62
f 45/45/67 47/46/68 52/48/66
f 47/46/68 50/47/63 52/48/66
f 46/45/69 45/46/67 52/47/66
f 46/45/69 52/47/66 51/48/65
f 48/45/70 46/46/69 51/47/65
f 48/45/70 51/47/65 49/48/64
f 47/45/68 48/46/70 50/48/63
f 48/46/70 49/47/64 50/48/63
f 24/45/71 23/46/72 47/48/68
f 23/46/72 48/47/70 47/48/68
f 23/45/72 31/46/39 48/48/70
f 31/46/39 46/47/69 48/48/70
f 31/45/39 32/46/37 45/47/67
f 31/45/39 45/47/67 46/48/69
f 32/45/37 24/46/71 47/47/68
f 32/45/37 47/47/68 45/48/67
f 43/49/73 44/50/74 41/51/75
f 44/50/74 42/52/76 41/51/75
f 38/49/77 37/50/78 43/51/73
f 37/50/78 44/52/74 43/51/73
f 37/49/78 39/50/79 44/51/74
f 39/50/79 42/52/76 44/51/74
f 39/49/79 40/50/80 42/51/76
f 40/50/80 41/52/75 42/51/76
f 40/49/80 38/50/77 43/52/73
f 40/49/80 43/52/73 41/51/75
f 33/49/81 35/50/82 40/51/80
f 35/50/82 38/52/77 40/51/80
f 34/49/83 33/50/81 40/52/80
f 34/49/83 40/52/80 39/51/79
f 36/49/84 34/50/83 39/52/79
f 36/49/84 39/52/79 37/51/78
f 35/49/82 36/50/84 38/51/77
f 36/50/84 37/52/78 38/51/77
f 19/49/85 18/50/86 35/51/82
f 18/50/86 36/52/84 35/51/82
f 18/49/86 26/50/44 34/52/83
f 18/49/86 34/52/83 36/51/84
f 26/53/44 27/54/43 33/55/81
f 26/53/44 33/55/81 34/56/83
f 27/49/43 19/50/85 33/51/81
f 19/50/85 35/52/82 33/51/81
f 24/57/71 32/31/37 25/32/38
f 24/57/71 25/32/38 17/58/87
f 23/59/72 22/60/88 30/35/40
f 23/59/72 30/35/40 31/34/39
f 22/60/88 21/61/57 29/37/41
f 22/60/88 29/37/41 30/35/40
f 20/62/58 19/63/85 27/39/43
f 20/62/58 27/39/43 28/38/42
f 18/64/86 17/58/87 25/32/38
f 18/64/86 25/32/38 26/40/44
f 16/65/89 24/57/71 17/58/87
f 16/65/89 17/58/87 9/66/90
f 16/65/89 15/67/91 23/68/72
f 16/65/89 23/68/72 24/57/71
f 15/69/91 14/70/92 22/60/88
f 15/69/91 22/60/88 23/59/72
f 14/70/92 13/71/93 21/61/57
f 14/70/92 21/61/57 22/60/88
f 13/71/93 12/72/94 20/62/58
f 13/71/93 20/62/58 21/61/57
f 12/72/94 11/73/95 19/63/85
f 12/72/94 19/63/85 20/62/58
f 11/73/95 10/74/96 18/64/86
f 11/73/95 18/64/86 19/63/85
f 10/74/96 9/66/90 17/58/87
f 10/74/96 17/58/87 18/64/86
f 9/66/90 1/75/97 8/76/98
f 9/66/90 8/76/98 16/65/89
f 8/77/98 7/78/99 15/69/91
f 8/77/98 15/69/91 16/79/89
f 7/78/99 6/80/100 14/70/92
f 7/78/99 14/70/92 15/69/91
f 6/80/100 5/81/101 13/71/93
f 6/80/100 13/71/93 14/70/92
f 5/81/101 4/82/102 12/72/94
f 5/81/101 12/72/94 13/71/93
f 4/82/102 3/83/103 11/73/95
f 4/82/102 11/73/95 12/72/94
f 3/83/103 2/84/104 10/74/96
f 3/83/103 10/74/96 11/73/95
f 2/84/104 1/75/97 10/74/96
f 1/75/97 9/66/90 10/74/96
