# Blender3D v249 OBJ File: Master.blend
# www.blender3d.org
mtllib wall_L.mtl
v 0.500000 -0.000000 1.103053
v 0.500000 0.000000 0.503053
v 0.500000 2.000000 0.503053
v 0.500000 2.000000 1.103054
v -0.500000 2.000000 -0.496947
v -0.500000 2.000000 1.103054
v -0.500000 0.000000 1.103054
v 1.100000 -0.000000 -0.496947
v -0.500000 0.000000 -0.496946
v 1.100000 2.000000 -0.496947
v 1.100000 2.000000 0.503053
v 1.100000 0.000000 0.503053
vt 0.337487 0.341431
vt 0.337487 0.999270
vt 0.529951 0.999270
vt 0.532017 0.999270
vt 0.532017 0.341431
vt 0.336110 0.341431
vt 0.131104 0.341431
vt 0.740075 0.999270
vt 0.740075 0.341431
vt 0.125000 0.341431
vt 0.125000 0.999270
vt 0.743127 0.999270
vt 0.131104 0.999270
vt 0.743126 0.341431
vt 0.529951 0.341431
vt 0.336110 0.999270
vn 1.000000 0.000000 -0.000000
vn -1.000000 0.000000 0.000000
vn -0.000000 -0.000000 -1.000000
vn -0.000000 -0.000000 1.000000
vn 0.000001 0.000000 1.000000
usemtl House_Side_house_blue.tga
s off
f 2/1/1 3/2/1 4/3/1
f 4/4/1 1/5/1 2/6/1
f 7/7/2 5/8/2 9/9/2
f 7/10/2 6/11/2 5/12/2
f 9/7/3 5/13/3 10/8/3
f 9/10/3 10/12/3 8/14/3
f 3/3/4 2/15/4 12/1/4
f 12/6/5 11/16/5 3/4/5
