# Blender3D v249 OBJ File: Master.blend
# www.blender3d.org
mtllib wall_I.mtl
v -1.000000 -0.000000 0.500000
v 1.000000 0.000000 0.500000
v 1.000000 2.000000 0.499999
v -1.000000 2.000000 0.500000
v 1.000000 2.000000 -0.500000
v -1.000000 2.000000 -0.500000
v -1.000000 0.000000 -0.500000
v 1.000000 -0.000000 -0.500001
vt 0.000000 0.350586
vt 0.000000 0.999270
vt 0.868127 0.999270
vt 0.868126 0.350586
vn 0.000000 0.000000 1.000000
vn -0.000000 0.000000 -1.000000
usemtl House_Side_house_blue.tga
s off
f 2/1/1 3/2/1 4/3/1
f 4/3/1 1/4/1 2/1/1
f 7/1/2 5/3/2 8/4/2
f 7/1/2 6/2/2 5/3/2
